<svg width="130" height="131" viewBox="0 0 130 131" fill="none" xmlns="http://www.w3.org/2000/svg">
<g clip-path="url(#clip0_547_10879)">
<path d="M25.6547 12.8519L35.1833 120H94.7334L104.262 12.8519H25.6547ZM25.6547 8.26723H104.264C104.9 8.26647 105.528 8.39806 106.11 8.65364C106.692 8.90921 107.215 9.28317 107.644 9.7517C108.074 10.2202 108.401 10.7731 108.605 11.375C108.81 11.977 108.886 12.6148 108.83 13.248L99.2997 120.396C99.1976 121.536 98.6723 122.597 97.8271 123.369C96.9819 124.141 95.8782 124.569 94.7334 124.568H35.1833C34.0374 124.571 32.9322 124.144 32.0857 123.371C31.2393 122.599 30.713 121.537 30.6109 120.396L21.0904 13.2561C21.0334 12.6225 21.1091 11.9839 21.3126 11.3811C21.5161 10.7783 21.843 10.2246 22.2725 9.75519C22.7019 9.28579 23.2245 8.91104 23.8068 8.65485C24.3891 8.39866 25.0185 8.26665 25.6547 8.26723Z" fill="black"/>
<path d="M34.559 57.6245C34.559 57.6245 42.0197 52.6458 54.3454 54.9818C66.671 57.3178 66.7644 59.6071 78.0886 60.897C89.4129 62.1868 95.986 57.6225 95.986 57.6225L90.9322 115.545H39.2126L34.559 57.6245Z" fill="#FEAE0D"/>
</g>
<defs>
<clipPath id="clip0_547_10879">
<rect width="130" height="130" fill="white" transform="translate(0 0.5)"/>
</clipPath>
</defs>
</svg>
