<svg width="31" height="31" viewBox="0 0 31 31" fill="none" xmlns="http://www.w3.org/2000/svg">
<rect x="0.394531" width="30.6055" height="30.6055" rx="15.3028" fill="#FEAE0D"/>
<path d="M15.6981 9.78696C16.5416 9.03183 17.6424 8.62848 18.7741 8.65979C19.9058 8.6911 20.9826 9.15468 21.7831 9.95529C22.5829 10.755 23.0465 11.8304 23.0789 12.9609C23.1113 14.0915 22.71 15.1917 21.9573 16.0358L15.6966 22.3054L9.43739 16.0358C8.68378 15.1912 8.28211 14.0901 8.31484 12.9586C8.34757 11.8272 8.81222 10.7511 9.61339 9.95147C10.4146 9.15181 11.4915 8.6892 12.623 8.6586C13.7546 8.62801 14.8549 9.03176 15.6981 9.78696ZM20.7377 10.9985C20.2043 10.4655 19.4872 10.1569 18.7335 10.1359C17.9798 10.1149 17.2467 10.3831 16.6844 10.8855L15.6988 11.77L14.7125 10.8863C14.1526 10.3856 13.423 10.1171 12.6722 10.1354C11.9213 10.1536 11.2057 10.4573 10.6708 10.9845C10.1359 11.5118 9.82203 12.223 9.793 12.9735C9.76398 13.724 10.022 14.4574 10.5146 15.0244L15.6974 20.2153L20.8802 15.0251C21.3706 14.4606 21.6287 13.7311 21.6023 12.9837C21.5758 12.2364 21.2668 11.5269 20.7377 10.9985Z" fill="white"/>
</svg>
