<svg width="24" height="25" viewBox="0 0 24 25" fill="none" xmlns="http://www.w3.org/2000/svg">
<path d="M11.3853 12.4952H20.0158M20.0158 12.4952L17.5499 10.0293M20.0158 12.4952L17.5499 14.961" stroke="white" stroke-width="1.33358" stroke-linecap="round" stroke-linejoin="round"/>
<path d="M17.7966 18.0313C16.6895 19.1853 15.2624 19.9816 13.699 20.3179C12.1356 20.6543 10.5073 20.5151 9.02359 19.9185C7.53989 19.3219 6.26861 18.295 5.37328 16.9699C4.47795 15.6449 3.99951 14.0823 3.99951 12.4831C3.99951 10.8839 4.47795 9.32129 5.37328 7.99624C6.26861 6.6712 7.53989 5.64431 9.02359 5.04766C10.5073 4.45102 12.1356 4.31191 13.699 4.64822C15.2624 4.98454 16.6895 5.7809 17.7966 6.93487" stroke="white" stroke-width="1.33358" stroke-linecap="round" stroke-linejoin="round"/>
</svg>
