<svg width="24" height="25" viewBox="0 0 24 25" fill="none" xmlns="http://www.w3.org/2000/svg">
<path fill-rule="evenodd" clip-rule="evenodd" d="M18 11C18 7.93 16.86 5.36 14 4.68V2.5H10V4.68C7.13 5.36 6 7.92 6 11L6 16.5L4 17.5V19.5H20V17.5L18 16.5L18 11ZM12.4 22.46C12.27 22.49 12.14 22.5 12 22.5C10.89 22.5 10 21.6 9.99001 20.5H13.99C13.99 20.78 13.94 21.04 13.84 21.28C13.58 21.88 13.05 22.32 12.4 22.46Z" fill="white"/>
<circle cx="17" cy="5.5" r="3.75" fill="#EC5F5F" stroke="white" stroke-width="1.5"/>
</svg>
