<svg width="7" height="31" viewBox="0 0 7 31" fill="none" xmlns="http://www.w3.org/2000/svg">
<path d="M0.355469 27.3203C0.355469 26.4635 0.619792 25.7435 1.14844 25.1602C1.69531 24.5586 2.47917 24.2578 3.5 24.2578C4.52083 24.2578 5.29557 24.5586 5.82422 25.1602C6.37109 25.7435 6.64453 26.4635 6.64453 27.3203C6.64453 28.1589 6.37109 28.8698 5.82422 29.4531C5.29557 30.0365 4.52083 30.3281 3.5 30.3281C2.47917 30.3281 1.69531 30.0365 1.14844 29.4531C0.619792 28.8698 0.355469 28.1589 0.355469 27.3203ZM0.382812 3.17578C0.382812 2.31901 0.647135 1.59896 1.17578 1.01562C1.72266 0.414062 2.50651 0.113281 3.52734 0.113281C4.54818 0.113281 5.32292 0.414062 5.85156 1.01562C6.39844 1.59896 6.67188 2.31901 6.67188 3.17578C6.67188 4.01432 6.39844 4.72526 5.85156 5.30859C5.32292 5.89193 4.54818 6.18359 3.52734 6.18359C2.50651 6.18359 1.72266 5.89193 1.17578 5.30859C0.647135 4.72526 0.382812 4.01432 0.382812 3.17578Z" fill="#202124"/>
</svg>

