<svg width="32" height="31" viewBox="0 0 32 31" fill="none" xmlns="http://www.w3.org/2000/svg">
<path d="M23.7432 20.5058C22.774 20.5058 21.9069 20.8883 21.2437 21.4877L12.1514 16.1955C12.2151 15.9022 12.2661 15.6089 12.2661 15.3028C12.2661 14.9968 12.2151 14.7035 12.1514 14.4102L21.1417 9.16898C21.8303 9.80659 22.7358 10.2019 23.7432 10.2019C25.8601 10.2019 27.5689 8.49311 27.5689 6.37622C27.5689 4.25934 25.8601 2.55054 23.7432 2.55054C21.6263 2.55054 19.9175 4.25934 19.9175 6.37622C19.9175 6.68228 19.9685 6.97558 20.0323 7.26889L11.0419 12.5101C10.3533 11.8725 9.44787 11.4771 8.44043 11.4771C6.32355 11.4771 4.61475 13.186 4.61475 15.3028C4.61475 17.4197 6.32355 19.1285 8.44043 19.1285C9.44787 19.1285 10.3533 18.7332 11.0419 18.0956L20.1215 23.4005C20.0578 23.6683 20.0195 23.9489 20.0195 24.2294C20.0195 26.2826 21.6901 27.9531 23.7432 27.9531C25.7963 27.9531 27.4669 26.2826 27.4669 24.2294C27.4669 22.1763 25.7963 20.5058 23.7432 20.5058Z" fill="#FEAE0D"/>
</svg>
