<svg width="22" height="22" viewBox="0 0 22 22" fill="none" xmlns="http://www.w3.org/2000/svg">
<g clip-path="url(#clip0_547_8187)">
<path d="M9.625 5.5V6.875H5.5V5.5H9.625ZM5.5 9.625V8.25H9.625V9.625H5.5ZM5.5 12.375V11H8.25V12.375H5.5ZM4.125 5.5V6.875H2.75V5.5H4.125ZM4.125 8.25V9.625H2.75V8.25H4.125ZM2.75 12.375V11H4.125V12.375H2.75ZM1.375 1.375V20.625H8.25V22H0V0H11.9775L17.875 5.89746V8.25H16.5V6.875H11V1.375H1.375ZM12.375 2.35254V5.5H15.5225L12.375 2.35254ZM19.25 11H22V22H9.625V11H12.375V9.625H13.75V11H17.875V9.625H19.25V11ZM20.625 20.625V15.125H11V20.625H20.625ZM20.625 13.75V12.375H11V13.75H20.625Z" fill="#878787"/>
</g>
<defs>
<clipPath id="clip0_547_8187">
<rect width="22" height="22" fill="white"/>
</clipPath>
</defs>
</svg>
