<svg width="21" height="22" viewBox="0 0 21 22" fill="none" xmlns="http://www.w3.org/2000/svg">
<path d="M12.6333 0C12.7962 5.242e-06 12.9549 0.052806 13.0866 0.150798C13.2183 0.24879 13.3161 0.386917 13.3659 0.545286L14.2125 3.23086C14.568 3.40843 14.9082 3.608 15.2329 3.83271L17.9357 3.23871C18.0951 3.20398 18.2611 3.22178 18.4099 3.28956C18.5587 3.35733 18.6826 3.47159 18.7638 3.61586L20.8971 7.38571C20.9785 7.5299 21.013 7.69678 20.9956 7.86228C20.9782 8.02778 20.9097 8.18336 20.8001 8.30657L18.9454 10.3966C18.9724 10.7973 18.9724 11.1995 18.9454 11.6003L20.8001 13.6934C20.9097 13.8166 20.9782 13.9722 20.9956 14.1377C21.013 14.3032 20.9785 14.4701 20.8971 14.6143L18.7638 18.3857C18.6824 18.5297 18.5584 18.6436 18.4096 18.7111C18.2608 18.7786 18.0949 18.7962 17.9357 18.7613L15.2329 18.1673C14.9097 18.3904 14.568 18.5916 14.214 18.7691L13.3659 21.4547C13.3161 21.6131 13.2183 21.7512 13.0866 21.8492C12.9549 21.9472 12.7962 22 12.6333 22H8.36672C8.20379 22 8.04506 21.9472 7.9134 21.8492C7.78174 21.7512 7.68393 21.6131 7.63408 21.4547L6.78908 18.7707C6.43448 18.5937 6.09246 18.3915 5.76553 18.1657L3.0643 18.7613C2.90494 18.796 2.7389 18.7782 2.59009 18.7104C2.44127 18.6427 2.31737 18.5284 2.23623 18.3841L0.102948 14.6143C0.021487 14.4701 -0.0130174 14.3032 0.00441008 14.1377C0.0218376 13.9722 0.0902963 13.8166 0.199915 13.6934L2.05461 11.6003C2.02774 11.2006 2.02774 10.7994 2.05461 10.3997L0.199915 8.30657C0.0902963 8.18336 0.0218376 8.02778 0.00441008 7.86228C-0.0130174 7.69678 0.021487 7.5299 0.102948 7.38571L2.23623 3.61429C2.3176 3.4703 2.44159 3.35637 2.59039 3.28889C2.73918 3.2214 2.90511 3.20384 3.0643 3.23871L5.76553 3.83429C6.09183 3.60957 6.43353 3.40686 6.78908 3.22929L7.63562 0.545286C7.68531 0.387427 7.78265 0.249666 7.91369 0.151721C8.04474 0.0537765 8.20277 0.000668906 8.36518 0H12.6317H12.6333ZM12.0699 1.57143H8.93005L8.05581 4.34814L7.46631 4.642C7.17651 4.78679 6.89676 4.95165 6.629 5.13543L6.08414 5.51257L3.28902 4.89657L1.71907 7.67486L3.63533 9.84029L3.58915 10.5066C3.56704 10.8351 3.56704 11.1649 3.58915 11.4934L3.63533 12.1597L1.71599 14.3251L3.28748 17.1034L6.0826 16.489L6.62746 16.8646C6.89522 17.0484 7.17497 17.2132 7.46477 17.358L8.05427 17.6519L8.93005 20.4286H12.073L12.9503 17.6503L13.5383 17.358C13.8278 17.2136 14.1071 17.0487 14.3741 16.8646L14.9174 16.489L17.7141 17.1034L19.284 14.3251L17.3662 12.1597L17.4124 11.4934C17.4346 11.1643 17.4346 10.8341 17.4124 10.505L17.3662 9.83871L19.2855 7.67486L17.7141 4.89657L14.9174 5.50943L14.3741 5.13543C14.1071 4.95128 13.8278 4.7864 13.5383 4.642L12.9503 4.34971L12.0715 1.57143H12.0699ZM10.5 6.28571C11.7246 6.28571 12.8991 6.7824 13.7651 7.6665C14.631 8.5506 15.1175 9.74969 15.1175 11C15.1175 12.2503 14.631 13.4494 13.7651 14.3335C12.8991 15.2176 11.7246 15.7143 10.5 15.7143C9.27537 15.7143 8.10089 15.2176 7.23494 14.3335C6.36899 13.4494 5.88251 12.2503 5.88251 11C5.88251 9.74969 6.36899 8.5506 7.23494 7.6665C8.10089 6.7824 9.27537 6.28571 10.5 6.28571ZM10.5 7.85714C9.68358 7.85714 8.90059 8.18826 8.32329 8.77766C7.746 9.36706 7.42167 10.1665 7.42167 11C7.42167 11.8335 7.746 12.6329 8.32329 13.2223C8.90059 13.8117 9.68358 14.1429 10.5 14.1429C11.3164 14.1429 12.0994 13.8117 12.6767 13.2223C13.254 12.6329 13.5783 11.8335 13.5783 11C13.5783 10.1665 13.254 9.36706 12.6767 8.77766C12.0994 8.18826 11.3164 7.85714 10.5 7.85714Z" fill="#878787"/>
</svg>
