<svg width="22" height="22" viewBox="0 0 22 22" fill="none" xmlns="http://www.w3.org/2000/svg">
<path d="M11.0004 4.15152C12.0478 3.21395 13.4145 2.71315 14.8196 2.75202C16.2248 2.79089 17.5617 3.36648 18.5556 4.36052C19.5487 5.35344 20.1243 6.68862 20.1645 8.09235C20.2048 9.49608 19.7065 10.862 18.7719 11.9102L10.9986 19.6945L3.22712 11.9102C2.29143 10.8615 1.79272 9.49436 1.83336 8.0895C1.874 6.68464 2.4509 5.34864 3.44564 4.35578C4.44038 3.36292 5.77747 2.78853 7.18241 2.75055C8.58734 2.71256 9.95351 3.21386 11.0004 4.15152ZM17.2576 5.65577C16.5954 4.99405 15.7051 4.61084 14.7693 4.58476C13.8335 4.55868 12.9232 4.89171 12.2251 5.51552L11.0014 6.61369L9.7767 5.51644C9.08156 4.89484 8.17571 4.56145 7.24346 4.58411C6.31121 4.60678 5.42263 4.98379 4.75852 5.63844C4.09441 6.29308 3.70469 7.17617 3.66865 8.108C3.63261 9.03982 3.95297 9.95037 4.56453 10.6544L10.9995 17.0994L17.4345 10.6553C18.0435 9.95439 18.3639 9.04857 18.3311 8.12066C18.2983 7.19275 17.9146 6.31185 17.2576 5.65577Z" fill="#878787"/>
</svg>
