<svg width="22" height="22" viewBox="0 0 22 22" fill="none" xmlns="http://www.w3.org/2000/svg">
<path d="M19.8943 0.872314L13.5607 3.25063L15.8338 4.68364C11.7732 9.79692 5.89941 12.9465 0.936523 14.1454L2.34246 16.7063C7.91895 14.8887 13.8229 11.6102 17.6256 5.81802L19.3572 6.90942L19.8943 0.872314ZM20.2252 5.88677L20.0189 8.24146L17.8146 6.84927C17.7373 6.96528 17.6557 7.077 17.574 7.19302V20.9258H20.9256V5.88677H20.2252ZM13.7541 11.3868C13.2084 11.8594 12.6455 12.3063 12.074 12.7274V20.9258H15.4256V11.3868H13.7541ZM8.43887 14.9961C7.82012 15.3227 7.20137 15.6235 6.57402 15.9071V20.9258H9.92559V14.9961H8.43887ZM1.07402 16.8868V20.9258H4.42559V16.8868H4.18152C3.54473 17.1231 2.90836 17.3422 2.27586 17.5442L1.9725 17.6387L1.56 16.8868H1.07402Z" fill="#878787"/>
</svg>
