<svg width="297" height="297" viewBox="0 0 297 297" fill="none" xmlns="http://www.w3.org/2000/svg">
<path d="M240.033 54.6926H264.09V47.6052H240.033V54.6926Z" fill="#EBEBEB"/>
<path d="M253.452 38.6686C257.46 38.6042 267.571 38.444 271.445 38.4052L277.509 38.3783L277.798 38.377L277.8 38.6686L277.826 45.7558L277.827 46.0734L277.509 46.0722L265.481 46.0284C262.486 46.0026 256.447 45.9398 253.452 45.8983L253.307 45.8966L253.309 45.7558L253.452 38.6686ZM253.452 38.6686L253.594 45.7558L253.452 45.6135C256.453 45.5716 262.481 45.5087 265.481 45.4834L277.509 45.4396L277.193 45.7558L277.219 38.6686L277.509 38.9588L271.545 38.9319C267.732 38.8923 257.397 38.7312 253.452 38.6686Z" fill="#EBEBEB"/>
<path d="M226.614 38.6686C230.622 38.6042 240.733 38.444 244.606 38.4052L250.671 38.3783L250.96 38.377L250.961 38.6686L250.987 45.7558L250.988 46.0734L250.671 46.0722L238.642 46.0284C235.647 46.0026 229.608 45.9398 226.614 45.8983L226.468 45.8966L226.471 45.7558L226.614 38.6686ZM226.614 38.6686L226.756 45.7558L226.614 45.6135C229.615 45.5716 235.642 45.5087 238.642 45.4834L250.671 45.4396L250.354 45.7558L250.381 38.6686L250.671 38.9588L244.707 38.9319C240.893 38.8923 230.558 38.7312 226.614 38.6686Z" fill="#EBEBEB"/>
<path d="M28.9949 38.6686C33.003 38.6042 43.114 38.444 46.9876 38.4052L53.0522 38.3783L53.3414 38.377L53.3425 38.6686L53.3686 45.7558L53.3698 46.0734L53.0522 46.0722L41.0236 46.0284C38.0288 46.0026 31.9897 45.9398 28.9949 45.8983L28.8496 45.8966L28.8524 45.7558L28.9949 38.6686ZM28.9949 38.6686L29.1373 45.7558L28.9949 45.6135C31.9961 45.5716 38.0239 45.5087 41.0236 45.4834L53.0522 45.4396L52.736 45.7558L52.762 38.6686L53.0522 38.9588L47.0881 38.9319C43.2747 38.8923 32.9395 38.7312 28.9949 38.6686Z" fill="#EBEBEB"/>
<path d="M42.4142 257.667H66.4716V250.58H42.4142V257.667Z" fill="#EBEBEB"/>
<path d="M28.9949 241.643C33.003 241.579 43.114 241.419 46.9876 241.38L53.0522 241.353L53.3414 241.352L53.3425 241.643L53.3686 248.73L53.3698 249.048L53.0522 249.047L41.0236 249.003C38.0288 248.977 31.9897 248.914 28.9949 248.873L28.8496 248.871L28.8524 248.73L28.9949 241.643ZM28.9949 241.643L29.1373 248.73L28.9949 248.588C31.9961 248.546 38.0239 248.483 41.0236 248.458L53.0522 248.414L52.736 248.73L52.762 241.643L53.0522 241.933L47.0881 241.907C43.2747 241.867 32.9395 241.706 28.9949 241.643Z" fill="#EBEBEB"/>
<path d="M194.738 178.862C198.746 178.797 208.857 178.637 212.73 178.598L218.795 178.571L219.084 178.57L219.085 178.862L219.111 185.949L219.112 186.266L218.795 186.265L206.766 186.221C203.772 186.196 197.732 186.133 194.738 186.091L194.592 186.09L194.595 185.949L194.738 178.862ZM194.738 178.862L194.88 185.949L194.738 185.806C197.739 185.765 203.767 185.702 206.766 185.676L218.795 185.633L218.479 185.949L218.505 178.862L218.795 179.152L212.831 179.125C209.017 179.085 198.682 178.924 194.738 178.862Z" fill="#EBEBEB"/>
<path d="M253.452 250.572C257.46 250.508 267.571 250.348 271.445 250.309L277.509 250.282L277.798 250.281L277.8 250.572L277.826 257.659L277.827 257.977L277.509 257.976L265.481 257.932C262.486 257.906 256.447 257.843 253.452 257.802L253.307 257.8L253.309 257.659L253.452 250.572ZM253.452 250.572L253.594 257.659L253.452 257.517C256.453 257.475 262.481 257.412 265.481 257.387L277.509 257.343L277.193 257.659L277.219 250.572L277.509 250.862L271.545 250.836C267.732 250.796 257.397 250.635 253.452 250.572Z" fill="#EBEBEB"/>
<path d="M77.0914 108.524H101.149V101.436H77.0914V108.524Z" fill="#EBEBEB"/>
<path d="M90.5082 92.4997C94.5163 92.4353 104.627 92.2752 108.501 92.2364L114.566 92.2095L114.855 92.2083L114.856 92.4998L114.882 99.587L114.883 99.9046L114.565 99.9034L102.537 99.8596C99.5422 99.8338 93.5031 99.771 90.5083 99.7295L90.363 99.7277L90.3658 99.587L90.5082 92.4997ZM90.5082 92.4997L90.6507 99.587L90.5083 99.4446C93.5094 99.4028 99.5372 99.3399 102.537 99.3146L114.566 99.2708L114.249 99.587L114.275 92.4998L114.565 92.79L108.601 92.7631C104.788 92.7234 94.4529 92.5624 90.5082 92.4997Z" fill="#EBEBEB"/>
<g opacity="0.7">
<path d="M267.127 187.727C267.304 187.655 267.553 187.791 267.593 187.975C267.665 188.304 267.713 188.665 267.593 188.986C267.488 189.275 267.28 189.54 266.967 189.628C266.662 189.7 266.357 189.612 266.157 189.363C266.077 189.259 266.029 189.098 266.021 188.962C266.012 188.826 266.069 188.705 266.157 188.601C266.189 188.561 266.237 188.521 266.285 188.489C266.317 188.473 266.349 188.465 266.381 188.457C266.406 188.417 266.414 188.369 266.438 188.328C266.598 188.048 266.831 187.855 267.127 187.727Z" fill="#EBEBEB"/>
<path d="M266.083 204.131C266.332 204.179 266.5 204.38 266.54 204.62C266.564 204.797 266.524 204.981 266.452 205.15C266.388 205.318 266.316 205.495 266.187 205.623C266.011 205.791 265.794 205.863 265.562 205.831C265.377 205.799 265.209 205.663 265.12 205.503C265.032 205.334 265 205.15 265.064 204.973C265.112 204.837 265.201 204.724 265.297 204.628C265.321 204.548 265.353 204.468 265.401 204.404C265.449 204.331 265.497 204.275 265.578 204.227C265.626 204.195 265.682 204.171 265.73 204.155C265.842 204.115 265.971 204.107 266.083 204.131Z" fill="#EBEBEB"/>
<path d="M269.358 209.048C269.23 209.673 268.74 210.09 268.267 210.459C268.115 210.58 267.914 210.74 267.818 210.908C267.722 211.069 267.682 211.253 267.609 211.462C267.521 211.719 267.409 211.959 267.184 212.12C266.944 212.296 266.615 212.312 266.35 212.184C265.845 211.935 265.7 211.285 265.724 210.772C265.749 210.259 265.941 209.786 266.246 209.384C266.254 209.304 266.254 209.232 266.27 209.152C266.382 208.59 266.679 207.989 267.192 207.692C267.642 207.427 268.211 207.411 268.676 207.628C269.214 207.884 269.478 208.478 269.358 209.048Z" fill="#EBEBEB"/>
<path d="M263.276 186.652C263.012 186.139 263.164 185.537 263.373 185.032C263.445 184.848 263.557 184.679 263.701 184.535C263.693 184.286 263.725 184.029 263.822 183.797C264.03 183.235 264.463 182.786 265.025 182.553C265.538 182.345 266.22 182.345 266.709 182.634C266.99 182.802 267.215 183.083 267.231 183.42C267.247 183.749 267.062 184.045 266.846 184.27C266.453 184.687 266.092 185.112 265.787 185.569C265.466 186.043 265.25 186.588 264.792 186.949C264.295 187.326 263.573 187.23 263.276 186.652Z" fill="#EBEBEB"/>
<path d="M265.034 219.668C264.32 220.935 263.341 222.026 262.331 223.069C261.569 223.855 260.758 224.609 259.988 225.411C259.315 227.184 258.52 228.917 257.598 230.577C256.547 232.422 255.392 234.211 254.133 235.847C252.881 237.515 251.526 239.007 250.154 240.459C247.371 243.299 244.443 245.665 241.555 247.775C235.748 251.954 230.109 255.042 225.031 258.034C222.489 259.51 220.114 260.978 217.893 262.454C217.331 262.823 216.786 263.2 216.264 263.577C215.711 263.946 215.213 264.339 214.7 264.724C214.171 265.101 213.713 265.51 213.2 265.895L211.692 267.138C207.697 270.563 203.984 274.702 200.582 279.539C199.732 280.75 198.89 282.002 198.088 283.293C197.238 284.576 196.492 285.924 195.69 287.288C194.149 290.047 192.657 292.927 191.222 296.071C189.858 292.854 189.2 289.405 188.879 285.94C188.583 282.459 188.631 278.897 189.128 275.352C189.601 271.798 190.492 268.253 191.759 264.788C193.051 261.339 194.727 257.962 196.772 254.777C197.302 253.991 197.823 253.205 198.401 252.435C198.986 251.673 199.564 250.871 200.197 250.165C201.433 248.697 202.716 247.293 204.04 246.01C206.679 243.395 209.454 241.109 212.165 239.039C217.612 234.9 222.954 231.547 227.446 228.275C228.593 227.473 229.644 226.663 230.662 225.852C231.184 225.459 231.649 225.05 232.146 224.657C232.604 224.248 233.077 223.855 233.51 223.446C233.719 223.261 233.919 223.077 234.12 222.884C234.296 222.652 234.465 222.419 234.625 222.187C236.951 218.85 239.173 215.016 239.919 210.917C240.104 209.898 240.184 208.863 240.16 207.828C240.136 206.705 240.007 205.59 240.087 204.467C240.168 203.377 240.489 202.398 240.97 201.427C241.371 200.601 241.94 199.703 241.9 198.748C241.82 197.136 240.071 196.189 239.157 195.107C238.596 194.441 238.227 193.719 238.114 192.845C237.962 191.714 238.259 190.559 238.018 189.452C237.617 187.591 235.965 186.339 234.432 185.497C232.708 184.535 230.799 183.813 229.379 182.361C228.176 181.142 227.39 179.281 227.735 177.524C228.072 175.751 229.58 174.732 231.216 174.524C232.932 174.299 234.569 174.845 236.229 175.182C237.601 175.462 239.438 175.671 240.625 174.716C241.299 174.171 241.411 173.257 241.94 172.599C242.446 171.973 243.232 171.676 244.01 171.708C245.871 171.773 247.315 173.112 248.43 174.532C250.756 177.516 252.111 181.992 255.825 183.516C256.74 183.893 257.758 183.845 258.665 184.246C259.475 184.599 260.004 185.321 260.309 186.155C260.638 187.061 260.694 188.056 260.774 189.01C260.879 190.214 261.007 191.417 261.079 192.62C261.168 194.072 261.288 195.508 261.392 196.96C261.689 196.045 262.074 195.155 262.547 194.296C262.908 193.647 263.349 193.029 263.807 192.444C264.232 191.906 264.697 191.28 265.403 191.136C266.622 190.879 267.232 192.099 267.312 193.117C267.432 194.481 266.718 195.925 266.173 197.136C265.531 198.556 264.785 199.927 264.168 201.355C263.51 202.879 263.101 204.451 263.061 206.12C263.028 207.836 263.245 209.553 263.149 211.27C263.093 212.28 262.852 213.275 262.563 214.27C262.443 215.737 262.234 217.205 261.946 218.649C261.865 219.074 261.769 219.507 261.673 219.933C262.21 219.066 262.74 218.2 263.277 217.334C263.702 216.652 264.272 215.81 265.202 216.026C266.79 216.395 265.507 218.834 265.034 219.668Z" fill="#EBEBEB"/>
</g>
<path d="M261.998 208.387C261.981 208.284 261.798 208.312 261.814 208.417C262.445 212.597 261.445 216.896 259.084 220.398C257.823 222.268 256.137 223.73 254.469 225.221C252.767 226.744 251.339 228.407 250.048 230.288C248.799 232.108 247.591 233.946 246.049 235.537C244.624 237.009 242.977 238.269 241.206 239.298C239.433 240.328 237.539 241.13 235.556 241.656C233.397 242.229 231.158 242.386 228.979 242.857C227.012 243.282 225.174 244.035 223.554 245.239C222.1 246.32 220.856 247.644 219.71 249.041C218.529 250.481 217.438 251.993 216.28 253.452C215.687 254.198 215.074 254.927 214.431 255.63C213.864 256.25 213.124 257.234 212.23 257.34C211.468 257.431 210.874 256.641 210.407 256.159C209.787 255.52 209.1 254.929 208.203 254.74C206.189 254.316 204.335 255.771 203.086 257.188C201.677 258.785 200.519 260.673 199.411 262.486C198.275 264.345 197.244 266.265 196.314 268.235C192.636 276.028 190.453 284.736 190.342 293.372C190.329 294.46 190.323 295.548 190.346 296.636C190.348 296.737 190.501 296.732 190.503 296.632C190.662 287.822 192.799 279.057 196.451 271.054C198.257 267.096 200.462 263.301 203.031 259.788C204.062 258.378 205.406 256.441 207.294 256.188C209.068 255.95 209.862 258.194 211.443 258.613C213.409 259.135 214.96 257.084 216.047 255.759C217.25 254.294 218.326 252.732 219.447 251.205C221.671 248.175 224.18 245.263 227.865 244.056C230.01 243.353 232.27 243.131 234.469 242.658C236.447 242.232 238.36 241.563 240.168 240.654C243.874 238.789 246.873 235.944 249.229 232.558C250.547 230.665 251.765 228.687 253.354 227.002C254.907 225.356 256.715 223.962 258.186 222.238C260.763 219.216 262.185 215.267 262.227 211.302C262.237 210.324 262.156 209.351 261.998 208.387Z" fill="#DBDBDB"/>
<path d="M210.39 260.649C206.845 262.035 203.72 264.422 201.303 267.347C198.548 270.679 196.96 274.934 195.4 278.916C194.501 281.21 193.668 283.577 193.64 286.069C193.639 286.15 193.761 286.146 193.765 286.066C193.864 283.844 194.687 281.788 195.612 279.793C196.49 277.902 197.403 276.023 198.39 274.187C199.381 272.344 200.511 270.606 201.667 268.866C202.712 267.293 203.844 265.783 205.164 264.428C206.658 262.893 208.46 261.629 210.436 260.799C210.527 260.761 210.485 260.612 210.39 260.649Z" fill="#DBDBDB"/>
<path d="M251.284 232.246C248.911 236.406 245.488 239.71 241.258 241.947C239.218 243.025 237.082 243.912 234.861 244.54C232.214 245.289 229.436 245.759 226.949 246.98C224.673 248.099 222.648 249.681 221.623 252.063C221.591 252.137 221.698 252.198 221.732 252.124C222.742 249.932 224.967 248.461 227.206 247.734C229.898 246.861 232.74 246.63 235.45 245.837C239.887 244.538 243.751 241.887 246.857 238.49C248.586 236.6 250.124 234.536 251.311 232.261C251.32 232.243 251.294 232.229 251.284 232.246Z" fill="#DBDBDB"/>
<path d="M259.689 223.778C257.469 224.823 255.749 226.44 254.421 228.489C253.121 230.495 252.261 232.775 251.357 234.977C251.327 235.051 251.434 235.112 251.467 235.038C253.385 230.77 255.682 226.473 259.791 223.943C259.9 223.876 259.799 223.726 259.689 223.778Z" fill="#DBDBDB"/>
<path d="M244.443 190.019C243.445 187.743 241.927 185.663 239.941 184.152C237.805 182.527 235.399 181.296 232.793 180.619C232.714 180.599 232.685 180.718 232.762 180.741C237.453 182.115 241.183 185.81 243.185 190.214C244.229 192.51 244.91 195.108 244.913 197.639C244.915 198.944 244.757 200.239 244.455 201.508C244.121 202.916 243.671 204.287 243.442 205.72C242.936 208.879 243.061 212.07 243.202 215.252C243.205 215.3 243.279 215.299 243.278 215.25C243.197 212.203 243.093 209.083 243.7 206.077C244.266 203.279 245.439 200.664 245.645 197.79C245.836 195.135 245.517 192.47 244.443 190.019Z" fill="#DBDBDB"/>
<path d="M258.062 203.737C257.32 200.131 256.254 196.582 254.925 193.148C254.896 193.073 254.776 193.109 254.805 193.184C256 196.249 256.775 199.386 257.248 202.639C257.477 204.209 257.605 205.799 257.708 207.381C257.81 208.971 257.881 210.568 257.753 212.158C257.328 217.459 253.463 221.552 250.252 225.474C248.563 227.537 246.978 229.719 246.12 232.27C246.109 232.305 246.163 232.318 246.175 232.284C247.933 227.38 252.163 224.194 255.279 220.22C256.908 218.144 258.006 215.757 258.468 213.154C259.019 210.044 258.694 206.811 258.062 203.737Z" fill="#DBDBDB"/>
<path d="M245.157 218.743C243.517 223.526 239.939 227.377 236.065 230.499C234.142 232.049 232.15 233.506 230.1 234.884C227.947 236.331 225.741 237.707 223.662 239.26C221.38 240.964 219.291 242.887 217.753 245.305C217.701 245.387 217.832 245.457 217.885 245.377C220.907 240.871 225.897 238.407 230.341 235.573C234.539 232.895 238.565 229.854 241.593 225.855C243.21 223.719 244.467 221.327 245.279 218.773C245.304 218.695 245.183 218.667 245.157 218.743Z" fill="#DBDBDB"/>
<path d="M257.12 184.545C256.435 184.228 255.699 184.05 254.992 183.792C254.294 183.536 253.627 183.202 253 182.801C251.707 181.972 250.646 180.909 249.773 179.649C248.924 178.426 248.236 177.097 247.361 175.892C246.593 174.836 245.568 173.6 244.144 173.568C242.823 173.539 242.028 174.64 241.113 175.403C240.004 176.326 238.554 176.318 237.196 176.141C234.484 175.787 231.399 174.718 229.141 176.907C229.083 176.964 229.174 177.049 229.232 176.994C230.243 176.028 231.658 176.03 232.962 176.247C234.231 176.457 235.442 176.885 236.701 177.13C237.886 177.361 239.208 177.451 240.36 177.018C240.917 176.808 241.403 176.497 241.843 176.098C242.306 175.679 242.694 175.163 243.212 174.807C244.543 173.89 245.759 175.332 246.475 176.339C247.272 177.46 247.947 178.66 248.722 179.796C250.259 182.051 252.36 183.722 254.996 184.495C255.803 184.732 256.646 184.898 257.379 185.33C257.985 185.686 258.468 186.213 258.852 186.795C259.633 187.98 259.941 189.323 260.287 190.675C260.303 190.738 260.413 190.724 260.404 190.656C260.07 188.341 259.443 185.624 257.12 184.545Z" fill="white"/>
<path d="M266.101 192.066C266.062 191.996 265.932 192.028 265.944 192.112C266.334 194.904 264.241 196.902 263.004 199.156C262.394 200.268 261.906 201.436 261.724 202.699C261.539 203.993 261.682 205.187 261.94 206.457C261.956 206.536 262.077 206.5 262.06 206.421C261.767 205.07 261.981 203.533 262.455 202.246C262.931 200.954 263.783 199.929 264.585 198.832C265.945 196.972 267.376 194.337 266.101 192.066Z" fill="white"/>
<path d="M208.844 258.165C208.359 257.001 206.681 257.387 205.868 257.901C204.779 258.59 203.876 259.552 203.12 260.584C201.564 262.709 200.727 265.166 199.604 267.518C199.57 267.591 199.679 267.652 199.714 267.579C200.678 265.56 201.916 263.582 203.345 261.86C204.031 261.033 204.793 260.252 205.611 259.555C206.043 259.187 206.503 258.828 207.014 258.575C207.564 258.303 207.982 258.371 208.562 258.461C208.72 258.486 208.92 258.347 208.844 258.165Z" fill="white"/>
<path d="M240.136 240.965C236.999 243.126 233.276 243.467 229.695 244.432C227.952 244.901 226.247 245.539 224.747 246.56C223.24 247.584 221.992 248.928 220.875 250.356C219.605 251.98 218.514 253.74 217.359 255.446C217.313 255.513 217.423 255.572 217.468 255.507C219.563 252.523 221.951 249.602 224.926 247.451C226.403 246.382 227.96 245.553 229.691 244.971C231.414 244.391 233.171 243.966 234.914 243.455C236.764 242.912 238.633 242.212 240.159 241.002C240.181 240.985 240.16 240.948 240.136 240.965Z" fill="white"/>
<path d="M243.461 198.83C243.445 198.759 243.321 198.777 243.332 198.851C243.551 200.285 242.836 201.551 242.316 202.835C241.836 204.018 241.584 205.226 241.487 206.496C241.285 209.148 241.645 211.854 240.959 214.456C239.724 219.139 235.697 222.517 232.213 225.594C230.103 227.458 228.09 229.385 226.423 231.668C226.382 231.725 226.479 231.797 226.524 231.741C229.742 227.683 234.59 225.367 238.101 221.602C239.741 219.844 241.138 217.814 241.877 215.51C242.71 212.914 242.357 210.234 242.312 207.565C242.287 206.04 242.322 204.482 242.757 203.009C243.16 201.643 243.788 200.279 243.461 198.83Z" fill="white"/>
<path d="M241.319 195.401C241.122 195.374 240.941 195.313 240.762 195.23C240.671 195.189 240.58 195.14 240.505 195.074C240.486 195.057 240.439 195.023 240.427 195.007C240.411 194.984 240.401 194.924 240.38 194.887C240.287 194.725 240.148 194.591 240.06 194.421C239.973 194.256 239.91 194.082 239.861 193.902C239.742 193.468 239.758 193.01 239.794 192.566C239.814 192.319 239.787 192.073 239.822 191.827C239.86 191.558 239.896 191.29 239.931 191.021C239.982 190.631 239.465 190.493 239.335 190.872C239.234 191.169 239.142 191.465 239.068 191.77C238.998 192.059 238.902 192.33 238.889 192.63C238.865 193.196 238.961 193.787 239.229 194.292C239.414 194.641 239.759 195.123 240.153 195.245C240.329 195.299 240.493 195.401 240.67 195.465C240.873 195.538 241.092 195.546 241.305 195.524C241.37 195.517 241.394 195.41 241.319 195.401Z" fill="white"/>
<path d="M265.813 182.96C265.522 183.081 265.248 183.209 265.011 183.42C264.779 183.625 264.586 183.864 264.436 184.135C264.291 184.396 264.205 184.708 264.154 185.002C264.102 185.303 264.089 185.588 264.17 185.885C264.201 185.996 264.368 185.989 264.394 185.88C264.455 185.624 264.51 185.36 264.598 185.112C264.685 184.871 264.821 184.66 264.955 184.444C265.086 184.234 265.236 184.032 265.406 183.851C265.583 183.663 265.76 183.466 265.976 183.323C266.156 183.204 266.032 182.869 265.813 182.96Z" fill="white"/>
<path d="M266.531 188.908C266.526 188.884 266.521 188.86 266.517 188.836C266.515 188.825 266.506 188.816 266.498 188.81C266.489 188.804 266.478 188.799 266.467 188.8C266.446 188.801 266.424 188.816 266.42 188.838C266.415 188.862 266.41 188.887 266.406 188.911C266.4 188.94 266.405 188.972 266.406 189.002C266.407 189.018 266.414 189.034 266.425 189.046C266.437 189.056 266.455 189.064 266.47 189.063C266.486 189.062 266.503 189.056 266.514 189.043C266.525 189.03 266.53 189.016 266.531 188.999L266.533 188.96L266.534 188.941C266.534 188.93 266.533 188.919 266.531 188.908Z" fill="white"/>
<path d="M267.189 208.551C267.073 208.772 266.949 208.99 266.842 209.216C266.735 209.443 266.649 209.681 266.557 209.914C266.465 210.145 266.378 210.377 266.294 210.611C266.252 210.727 266.205 210.843 266.169 210.961C266.132 211.079 266.118 211.202 266.079 211.32C266.057 211.39 266.16 211.425 266.195 211.366C266.259 211.256 266.345 211.164 266.407 211.055C266.469 210.946 266.527 210.836 266.587 210.726C266.707 210.507 266.823 210.286 266.936 210.063C267.049 209.84 267.171 209.619 267.263 209.387C267.355 209.154 267.441 208.919 267.53 208.685C267.605 208.488 267.284 208.368 267.189 208.551Z" fill="white"/>
<g opacity="0.7">
<path d="M143.901 24.5898L143.901 24.5899L143.902 24.5903L143.903 24.5903L143.901 24.5898Z" fill="#EBEBEB"/>
<path d="M40.6125 139.263C40.5292 138.804 40.6194 138.359 40.821 137.948C40.8349 137.927 40.8489 137.907 40.8558 137.886C40.8974 137.566 41.0086 137.267 41.2171 136.989C41.502 136.62 41.9398 136.335 42.4192 136.321C42.718 136.314 43.0654 136.404 43.1766 136.71C43.2738 136.975 43.3712 137.246 43.4476 137.517C43.6005 138.053 43.6908 138.672 43.5102 139.214C43.3573 139.666 43.0515 140.097 42.6207 140.32C42.1969 140.535 41.6897 140.563 41.2796 140.299C40.9183 140.07 40.689 139.68 40.6125 139.263Z" fill="#EBEBEB"/>
<path d="M51.5828 121.256C51.5064 120.825 51.5064 120.401 51.5551 119.969C51.6454 119.142 51.9232 118.307 52.1456 117.473C52.1387 117.285 52.1179 117.104 52.1179 116.916C52.1109 116.221 52.1039 115.511 52.1665 114.823C52.2152 114.253 52.361 113.689 52.7362 113.251C53.2991 112.584 54.3276 112.34 55.0016 112.987C55.5992 113.557 55.6757 114.573 55.4254 115.324C55.0919 116.325 54.1955 117.104 54.1746 118.21C54.1539 119.364 54.6958 120.442 54.133 121.548C53.9315 121.945 53.6119 122.299 53.2019 122.48C52.8892 122.612 52.3681 122.689 52.0831 122.431C51.7913 122.174 51.6523 121.618 51.5828 121.256Z" fill="#EBEBEB"/>
<path d="M63.3258 96.3098C63.2216 95.9969 63.2285 95.6978 63.3119 95.3918C63.3189 95.1484 63.3606 94.898 63.4578 94.6755C63.5899 94.3625 63.8053 94.0913 64.0762 93.8826C64.2638 93.7366 64.4932 93.6392 64.7364 93.681C64.9448 93.7157 65.1116 93.8548 65.2228 94.0287C65.32 94.1956 65.3687 94.3903 65.3826 94.585C65.3896 94.6616 65.3896 94.738 65.3896 94.8076C65.3966 94.8215 65.4035 94.8771 65.4035 94.8841C65.4104 94.9049 65.4173 94.9189 65.4243 94.9398C65.4243 94.9398 65.4313 94.9398 65.4452 94.9537L65.4799 94.9676C65.5633 95.0024 65.6327 95.051 65.6953 95.1136C65.876 95.3084 65.8621 95.5796 65.7926 95.8161C65.6744 96.1985 65.4313 96.5185 65.1464 96.7966C64.8476 97.0818 64.4654 97.4782 64.0276 97.2348C63.6941 97.0471 63.4508 96.6576 63.3258 96.3098Z" fill="#EBEBEB"/>
<path d="M66.3076 93.5626C66.259 93.3817 66.2729 93.18 66.3772 93.0201C66.4744 92.8602 66.6204 92.7349 66.801 92.6793C66.9747 92.6306 67.1693 92.6445 67.3221 92.7489C67.475 92.8462 67.5792 93.0061 67.614 93.1939C67.6418 93.3677 67.6001 93.5626 67.4681 93.6877C67.35 93.7989 67.1901 93.8616 67.0303 93.8476C67.0303 93.9103 66.9956 93.9729 66.94 94.0076C66.8497 94.0632 66.7524 94.0354 66.669 93.9937C66.5926 93.9589 66.523 93.9033 66.4675 93.8407C66.391 93.7642 66.3354 93.6668 66.3076 93.5626Z" fill="#EBEBEB"/>
<path d="M66.6688 86.2813C66.6549 86.2327 66.641 86.1839 66.641 86.1353C66.641 86.031 66.6757 85.9197 66.7312 85.8362C66.7939 85.7528 66.8772 85.6833 66.9745 85.6415C67.037 85.6137 67.0926 85.6068 67.1551 85.5998C67.183 85.5372 67.2108 85.4815 67.2524 85.4259C67.183 85.3425 67.1899 85.2034 67.315 85.1686C67.4332 85.1338 67.5442 85.1478 67.6555 85.1964C67.6624 85.2034 67.6694 85.2173 67.6833 85.2243C67.7111 85.2243 67.7458 85.2173 67.7736 85.2243C67.9126 85.2451 68.0169 85.3981 68.0169 85.5302C68.0307 85.7806 68.0099 86.0589 67.8987 86.2883C67.7944 86.49 67.6069 86.6569 67.3845 86.6986C67.2525 86.7265 67.0996 86.7265 66.9814 86.6638C66.8842 86.6082 66.78 86.5317 66.7312 86.4274C66.7243 86.4135 66.7174 86.3926 66.7105 86.3717C66.7105 86.3717 66.7105 86.3648 66.7035 86.3648C66.6896 86.337 66.6757 86.3092 66.6688 86.2813Z" fill="#EBEBEB"/>
<path d="M131.457 26.9931C131.36 26.7358 131.52 26.4576 131.742 26.3255C131.791 26.2976 131.846 26.2699 131.902 26.2629C131.964 26.249 132.02 26.2351 132.083 26.2421C132.18 26.249 132.235 26.2629 132.326 26.2976C132.375 26.3185 132.423 26.3533 132.458 26.395C132.527 26.4576 132.562 26.5202 132.597 26.6037C132.618 26.6593 132.632 26.7218 132.625 26.7775C132.618 26.9235 132.562 27.0557 132.465 27.1601C132.388 27.2435 132.284 27.3061 132.18 27.3478C132.076 27.3826 131.951 27.3895 131.846 27.3617C131.7 27.327 131.582 27.2226 131.527 27.0766H131.52C131.499 27.0487 131.471 27.0279 131.457 26.9931Z" fill="#EBEBEB"/>
<path d="M135.753 46.2638C135.843 46.2222 135.934 46.1874 136.038 46.1944C136.205 46.1944 136.378 46.2638 136.496 46.3891C136.615 46.5073 136.705 46.6812 136.691 46.855C136.691 46.9106 136.677 46.9663 136.649 47.015C136.635 47.0359 136.621 47.0637 136.601 47.0845C136.573 47.1124 136.538 47.1402 136.496 47.1541C136.462 47.1749 136.42 47.1819 136.378 47.1819H136.35C136.33 47.1819 136.309 47.1819 136.288 47.1749V47.1679C136.253 47.161 136.218 47.1471 136.191 47.1262C136.156 47.2097 136.093 47.2862 136.01 47.3418C135.947 47.3766 135.871 47.3906 135.802 47.3836C135.753 47.3836 135.718 47.3697 135.676 47.3488C135.656 47.3279 135.628 47.314 135.607 47.3001C135.489 47.1749 135.412 47.001 135.426 46.8272C135.426 46.7785 135.433 46.7298 135.44 46.6881C135.454 46.6394 135.468 46.5977 135.489 46.556C135.517 46.4934 135.551 46.4377 135.6 46.3891C135.642 46.3404 135.697 46.2917 135.753 46.2638Z" fill="#EBEBEB"/>
<path d="M68.6613 91.7125C68.4736 91.3926 68.557 91.0032 68.703 90.6832C68.7099 90.6762 68.7169 90.6623 68.7169 90.6554C68.7933 90.3424 68.967 90.0504 69.2241 89.8069C69.231 89.793 69.2449 89.7861 69.2589 89.7791C69.3283 89.6817 69.3978 89.5843 69.4673 89.494C69.7591 89.0697 70.0788 88.6594 70.3985 88.2491C70.9404 87.5328 71.4824 86.7956 72.08 86.114C72.5595 85.5715 73.2891 85.4602 73.9006 85.8776C75.3112 86.8442 74.38 88.9445 73.6157 90.0086C73.178 90.6276 72.6568 91.177 72.1217 91.7125C71.6214 92.2202 71.0933 92.714 70.329 92.6793C69.8356 92.6584 69.3631 92.4428 69.0504 92.0741C68.8905 92.0047 68.7585 91.8863 68.6613 91.7125Z" fill="#EBEBEB"/>
<path d="M136.128 41.3819C136.051 41.3263 136.003 41.2777 135.947 41.2011C135.878 41.1037 135.871 40.9994 135.885 40.8951C135.892 40.8534 135.892 40.8117 135.905 40.7699V40.763C135.912 40.7212 135.926 40.6795 135.954 40.6378C136.01 40.5682 136.058 40.5056 136.135 40.457H136.142C136.197 40.4153 136.26 40.3873 136.322 40.3735C136.371 40.3596 136.427 40.3596 136.475 40.3804C136.482 40.3804 136.482 40.3873 136.489 40.3873C136.531 40.3873 136.573 40.3873 136.607 40.3944C136.718 40.4083 136.823 40.457 136.913 40.5195C136.969 40.5543 137.017 40.596 137.059 40.6447C137.094 40.6795 137.121 40.7143 137.149 40.756C137.17 40.7978 137.191 40.8394 137.205 40.8812C137.226 40.9437 137.226 41.0064 137.212 41.062C137.198 41.1246 137.17 41.1733 137.128 41.215C137.045 41.3193 136.927 41.3889 136.802 41.4376C136.712 41.4724 136.6 41.4932 136.496 41.4862C136.371 41.4793 136.239 41.4585 136.128 41.3819Z" fill="#EBEBEB"/>
<path d="M137.747 26.3736C137.685 26.2624 137.643 26.1511 137.636 26.0259C137.636 25.9494 137.636 25.8729 137.643 25.8034C137.65 25.6991 137.664 25.5113 137.761 25.4487C137.782 25.4348 137.789 25.4209 137.796 25.407C137.81 25.393 137.817 25.3792 137.831 25.3652C137.859 25.3374 137.893 25.3096 137.928 25.2887C137.956 25.2748 137.977 25.2679 138.005 25.2679C138.012 25.254 138.019 25.2331 138.032 25.2192C138.178 25.0523 138.435 24.9618 138.651 24.9827C138.88 24.9967 139.075 25.0731 139.255 25.2122C139.401 25.3305 139.519 25.5113 139.554 25.6921C139.603 25.9286 139.575 26.172 139.429 26.3736C139.29 26.5754 139.109 26.7214 138.873 26.8049C138.449 26.9579 137.963 26.7701 137.747 26.3736Z" fill="#EBEBEB"/>
<path d="M143.112 25.9494C142.967 25.7687 142.897 25.5113 142.897 25.2818C142.897 25.1705 142.904 25.0593 142.946 24.948C142.98 24.8437 143.036 24.7463 143.092 24.6629C143.092 24.6629 143.092 24.6559 143.099 24.6559C143.154 24.3638 143.286 24.0855 143.55 23.9326C143.793 23.7866 144.099 23.7866 144.349 23.9187C144.592 24.0508 144.759 24.3082 144.808 24.5724C144.863 24.8854 144.808 25.2054 144.641 25.4765C144.565 25.6017 144.474 25.7269 144.377 25.8382C144.287 25.9494 144.196 26.0608 144.078 26.1442C143.925 26.2555 143.717 26.2972 143.536 26.2486C143.363 26.1998 143.224 26.0886 143.112 25.9494Z" fill="#EBEBEB"/>
<path d="M171.316 38.9824C171.33 39.038 171.351 39.1006 171.372 39.1563C171.393 39.2258 171.379 39.2953 171.351 39.351C171.337 39.3857 171.316 39.4066 171.289 39.4275C171.275 39.4414 171.254 39.4553 171.233 39.4622C171.205 39.4761 171.17 39.4831 171.136 39.4831L171.066 39.4761C171.038 39.4692 171.004 39.4553 170.983 39.4344C170.955 39.4136 170.934 39.3927 170.913 39.3649C170.913 39.358 170.906 39.351 170.9 39.351C170.893 39.337 170.893 39.3162 170.886 39.3022L170.823 39.1353C170.816 39.1075 170.802 39.0797 170.795 39.0519C170.788 39.0241 170.781 38.9893 170.774 38.9615C170.761 38.9197 170.761 38.8711 170.774 38.8294C170.781 38.8085 170.788 38.7946 170.795 38.7737C170.809 38.7459 170.83 38.7181 170.858 38.7042C170.872 38.6833 170.886 38.6764 170.906 38.6694C170.941 38.6555 170.969 38.6416 171.004 38.6485L171.066 38.6555C171.101 38.6625 171.129 38.6764 171.15 38.6972C171.177 38.7112 171.198 38.732 171.219 38.7598L171.261 38.8433C171.282 38.892 171.296 38.9337 171.316 38.9824Z" fill="#EBEBEB"/>
<path d="M163.882 32.5561C163.868 32.5212 163.854 32.4795 163.854 32.4448C163.854 32.4239 163.854 32.3614 163.875 32.3335V32.3127C163.875 32.2918 163.882 32.2639 163.882 32.2431C163.889 32.2153 163.896 32.1945 163.903 32.1665C163.923 32.0971 163.965 32.0414 164.007 31.9858C164.042 31.9371 164.09 31.8954 164.125 31.8676C164.132 31.8606 164.146 31.8536 164.153 31.8467C164.16 31.8398 164.167 31.8398 164.174 31.8328C164.201 31.812 164.229 31.791 164.257 31.7771C164.354 31.7284 164.472 31.7076 164.584 31.7146C164.604 31.7146 164.625 31.7354 164.625 31.7563C164.625 31.7702 164.632 31.791 164.632 31.8049C164.674 31.8188 164.723 31.8258 164.757 31.8467C164.91 31.951 165.014 32.0762 165.084 32.2431C165.14 32.3753 165.146 32.5212 165.126 32.6604C165.098 32.8342 164.987 33.022 164.806 33.0568C164.66 33.0916 164.507 33.0916 164.361 33.0359C164.292 33.0081 164.229 32.9803 164.167 32.9386C164.09 32.8829 164.035 32.8342 163.979 32.7578C163.937 32.6951 163.903 32.6256 163.882 32.5561Z" fill="#EBEBEB"/>
<path d="M146.633 27.7715C146.453 27.3194 146.71 26.8187 147.147 26.6379C147.509 26.4988 147.933 26.5753 148.287 26.7004C148.815 26.8952 149.322 27.1525 149.837 27.3889C150.281 27.5837 150.775 27.7575 151.101 28.14C151.476 28.5852 151.442 29.218 150.907 29.524C150.455 29.7814 149.885 29.7188 149.42 29.524C149.017 29.3571 148.711 29.0789 148.461 28.7452C148.238 28.6964 148.016 28.6477 147.794 28.5921C147.349 28.4739 146.814 28.2305 146.633 27.7715Z" fill="#EBEBEB"/>
<path d="M167.183 33.1337C166.912 32.4869 167.149 31.7427 167.649 31.2837C168.233 30.7412 169.101 30.6578 169.845 30.9012C170.984 31.2698 171.797 32.3199 171.915 33.5092C171.978 34.1212 171.804 34.7263 171.436 35.22C171.047 35.7347 170.366 36.0685 169.713 35.8877C169.164 35.7347 168.802 35.2965 168.504 34.8376C168.372 34.6289 168.246 34.4133 168.094 34.2186C167.948 34.0239 167.67 33.8152 167.489 33.5927C167.427 33.5092 167.385 33.4118 167.343 33.3214C167.281 33.2797 167.218 33.2241 167.183 33.1337Z" fill="#EBEBEB"/>
<path d="M173.11 33.9964C173.082 33.8573 173.082 33.7252 173.145 33.6C173.166 33.5443 173.207 33.4957 173.256 33.4609C173.27 33.3565 173.298 33.2522 173.333 33.1549C173.367 33.0784 173.402 32.988 173.458 32.9254C173.52 32.8349 173.611 32.7862 173.715 32.7724C173.965 32.7237 174.215 32.7724 174.423 32.9115C174.618 33.0506 174.764 33.2245 174.847 33.447C174.931 33.6695 174.91 33.9059 174.82 34.1216C174.674 34.4624 174.285 34.6501 173.923 34.6223C173.722 34.6084 173.541 34.5528 173.374 34.4206C173.242 34.3233 173.138 34.1633 173.11 33.9964Z" fill="#EBEBEB"/>
<path d="M186.597 82.8527C181.651 90.8993 176.551 98.8752 171.498 106.853C166.939 114.307 160.4 120.37 152.68 124.449C139.931 133.989 124.275 137.843 109.14 141.133C78.2237 147.853 73.7964 171.225 73.0071 180.392C72.5292 187.14 74.5426 192.946 78.6983 198.488C84.3583 206.132 87.412 214.1 94.4709 221.779C95.8141 223.257 97.3317 224.758 98.6401 226.258C99.3212 227.044 100.016 227.816 100.648 228.644C111.289 242.015 116.169 259.324 114.316 276.102C111.166 262.125 104.388 248.606 93.7899 238.923C93.1785 238.338 92.5322 237.796 91.886 237.26C91.2606 236.711 90.5796 236.217 89.9195 235.71C89.1043 235.069 88.2139 234.511 87.3763 233.908C72.4671 224.875 55.3216 217.03 46.622 200.721C40.0427 193.945 36.2479 184.612 37.2831 175.12C37.6164 171.622 38.4434 168.187 38.7143 164.674C39.0331 161.277 38.3693 157.919 37.804 154.583C37.3358 151.461 36.9656 148.048 38.2904 145.083C39.8667 141.973 43.3969 143.709 43.7313 146.648C44.0353 148.884 42.7243 151.437 44.3706 153.373C45.0794 151.266 45.6978 149.131 46.0383 146.926C46.9277 141.14 46.4969 134.463 50.3952 129.665C51.4652 128.343 52.8758 127.356 54.0224 126.104C55.0995 124.928 55.8429 123.489 56.3572 121.987C57.4411 118.85 57.8025 115.498 58.7197 112.313C60.1156 107.56 62.2089 102.99 64.9527 98.8624C65.7687 97.6917 67.7507 94.2348 69.4972 95.1624C70.1365 95.538 70.1365 96.3379 70.0531 96.9846C69.666 99.0757 68.3454 100.825 67.2944 102.639C65.6947 106.495 63.1894 110.542 64.0493 114.872C64.2995 115.658 65.0153 115.575 65.6129 115.22C66.7663 114.538 67.4057 113.126 68.2534 112.132C69.5011 110.404 72.2564 109.623 73.8055 111.388C75.4122 113.574 71.977 115.97 70.8523 117.661C69.0726 119.729 67.5644 122.235 67.913 125.068C67.9823 125.937 67.9893 126.758 67.76 127.523C73.4652 124.143 79.566 121.892 85.7294 120.297C92.5162 118.589 99.4517 117.705 106.409 117.355C137.202 115.13 162.564 101.733 163.361 67.6707C163.073 65.8024 162.592 63.9028 161.477 62.3434C159.845 60.0052 157.162 58.6323 155.529 56.2928C155.126 55.7086 154.869 54.9784 155.14 54.283C155.404 53.5944 155.793 53.1075 155.641 52.3217C155.349 50.8125 153.938 49.9849 152.673 49.3521C151.173 48.5939 149.651 47.8359 148.073 47.2518C144.921 46.0272 141.503 45.9865 138.255 45.1306C137.609 44.9567 136.9 44.7828 136.427 44.2752C136.038 43.8578 135.962 43.2459 136.434 42.8564C137.014 42.4699 137.785 42.5066 138.449 42.3486C139.989 42.0653 142.401 42.1687 140.339 40.151C139.413 39.299 138.117 38.9741 136.886 38.9409C136.108 38.9339 135.35 39.0939 134.572 39.08C133.287 39.0452 131.813 38.2802 131.925 36.7989C132.043 35.2688 133.551 34.5177 134.134 33.2242C134.873 31.3969 132.703 31.8899 131.674 31.576C130.331 31.1813 129.683 29.6202 131.091 28.8079C133.177 27.5216 135.665 28.0432 137.831 28.7525C138.616 28.9123 139.137 28.6967 139.721 28.1959C140.936 26.9584 142.485 27.5251 143.744 28.3699C144.787 28.9957 145.766 29.7469 146.614 30.6231C148.03 31.0318 149.258 32.0374 150.721 32.2853C151.722 32.4035 152.528 31.7984 153.382 31.3881C154.994 30.6092 156.808 30.7622 158.455 31.3464C164.713 33.9093 169.714 39.1801 172.623 45.2209C173.721 47.516 174.979 50.6525 177.703 51.3063C179.259 47.1277 175.335 43.6173 173.888 40.0188C173.089 39.0661 172.38 37.7795 173.172 36.7502C173.645 36.1451 174.486 36.0478 175.16 36.3329C175.931 36.6667 176.389 37.4179 176.834 38.0924C177.948 39.7915 178.858 41.6127 179.621 43.4892C182.636 48.1836 184.367 53.6987 184.464 59.2834C184.533 63.5187 183.463 67.9905 185.583 71.913C188.114 75.8912 189.182 78.468 186.597 82.8527Z" fill="#EBEBEB"/>
</g>
<path d="M183.775 78.9106C183.707 77.2015 183.338 75.5071 182.669 73.9321C181.978 72.305 180.949 70.9672 179.903 69.5601C179.396 68.8788 178.895 68.1635 178.58 67.3699C178.251 66.5434 178.158 65.6796 178.191 64.7959C178.257 63.0337 178.773 61.3159 178.768 59.5474C178.763 57.8529 178.145 56.3632 177.011 55.116C175.972 53.972 174.67 53.108 173.54 52.0612C172.25 50.867 171.4 49.3928 170.739 47.7772C169.467 44.6711 168.574 41.2264 165.706 39.1568C164.338 38.17 162.743 37.823 161.087 38.1251C159.327 38.446 157.699 39.4191 155.886 39.4465C153.368 39.4847 151.219 37.8031 149.366 36.2938C147.445 34.7286 145.414 32.8586 142.952 32.23C142.387 32.0856 141.805 31.9857 141.221 31.9558C141.153 31.9523 141.157 32.0574 141.224 32.0615C143.838 32.2231 145.968 34.1426 147.789 35.844C149.589 37.5262 151.508 39.4837 153.913 40.2551C155.283 40.6944 156.691 40.6351 158.072 40.2683C159.726 39.8287 161.408 38.9519 163.162 39.3235C166.382 40.0054 167.882 43.569 168.941 46.3013C169.567 47.9187 170.19 49.5749 171.189 51.0068C172.116 52.3363 173.366 53.3042 174.609 54.3179C175.757 55.2545 176.976 56.2921 177.467 57.7414C178.018 59.3696 177.624 61.1237 177.372 62.7694C177.113 64.4526 176.956 66.1848 177.635 67.7947C178.313 69.3998 179.532 70.6533 180.505 72.0733C181.461 73.4703 182.124 75.0422 182.493 76.6933C182.867 78.3667 182.852 80.0206 182.799 81.7225C182.746 83.4482 181.949 85.2239 181.092 86.6877C180.137 88.3211 178.966 89.8103 177.906 91.3742C175.791 94.4954 174.32 97.9923 173.02 101.516C172.686 102.422 172.363 103.331 172.04 104.241C172.012 104.318 172.134 104.346 172.163 104.271C173.569 100.583 174.979 96.8658 177.043 93.4848C179.01 90.2652 181.791 87.5808 182.985 83.9271C183.253 83.1054 183.429 82.2582 183.632 81.419C183.825 80.615 183.808 79.7332 183.775 78.9106Z" fill="#DBDBDB"/>
<path d="M81.623 123.603C78.4069 123.841 75.5896 125.25 73.0522 127.166C71.7759 128.13 70.6234 129.256 69.5742 130.462C68.5351 131.657 67.6805 132.974 66.7361 134.241C65.8457 135.434 64.8546 136.667 63.5748 137.462C62.995 137.822 62.3449 138.083 61.657 138.116C60.8257 138.155 60.1073 137.827 59.3492 137.533C55.9766 136.227 53.1719 139.437 52.0138 142.272C50.8238 145.186 50.6671 148.384 50.3396 151.477C50.1714 153.067 49.9427 154.654 49.5101 156.195C49.0609 157.796 48.4319 159.335 47.719 160.835C46.2773 163.869 44.5188 166.744 43.2012 169.838C42.5435 171.382 41.9795 172.972 41.6391 174.619C41.254 176.482 41.1629 178.398 41.3212 180.292C41.6419 184.127 42.8584 187.854 44.4033 191.358C45.9156 194.789 47.8655 197.971 50.0442 201.015C50.5688 201.748 51.1107 202.47 51.6549 203.188C51.6957 203.242 51.7862 203.187 51.7448 203.133C49.5167 200.221 47.7084 196.957 46.2395 193.603C44.7365 190.171 43.3432 186.65 42.6469 182.954C42.2913 181.066 42.1426 179.129 42.2887 177.211C42.4184 175.508 42.8343 173.836 43.4098 172.231C44.5241 169.124 46.2486 166.267 47.7712 163.351C49.2758 160.469 50.6133 157.491 51.1531 154.264C51.6645 151.207 51.6464 148.076 52.2965 145.041C52.6023 143.612 53.0749 142.219 53.8661 140.983C54.6807 139.71 55.9897 138.328 57.5887 138.202C58.4859 138.132 59.251 138.583 60.0756 138.856C60.7752 139.088 61.5145 139.141 62.2395 139.012C63.6063 138.767 64.7669 137.878 65.7121 136.904C66.7842 135.799 67.6333 134.503 68.48 133.225C69.354 131.905 70.3165 130.628 71.3901 129.463C73.5532 127.115 76.1747 125.135 79.2608 124.195C80.0333 123.96 80.8236 123.798 81.6255 123.704C81.6886 123.696 81.6883 123.598 81.623 123.603Z" fill="#DBDBDB"/>
<path d="M107.058 249.483C105.021 245.173 102.511 241.063 99.3393 237.489C96.2476 234.005 92.5239 231.281 88.4304 229.087C84.3959 226.924 80.1191 225.282 76.0154 223.266C74.0055 222.279 72.0065 221.312 70.1089 220.115C68.1911 218.905 66.3632 217.561 64.7219 215.992C64.3225 215.611 63.9351 215.217 63.5579 214.814C63.5111 214.764 63.4395 214.84 63.485 214.89C66.4786 218.181 70.1707 220.602 73.9887 222.824C77.8732 225.086 81.9918 226.92 85.9397 229.065C89.9516 231.244 93.8032 233.624 97.1152 236.798C100.535 240.075 103.248 243.963 105.61 248.049C108.035 252.245 109.973 256.699 111.72 261.214C111.934 261.767 112.146 262.32 112.356 262.874C112.373 262.918 112.443 262.898 112.427 262.853C110.812 258.329 109.112 253.829 107.058 249.483Z" fill="#DBDBDB"/>
<path d="M165.299 111.38C162.702 113.947 160.141 116.578 157.072 118.593C155.554 119.589 153.926 120.426 152.189 120.968C150.27 121.567 148.33 121.583 146.348 121.781C144.463 121.968 142.775 122.54 141.183 123.568C139.656 124.553 138.303 125.776 136.834 126.841C133.905 128.963 130.522 130.285 127.031 131.153C119.938 132.914 112.556 132.921 105.42 134.447C98.5531 135.916 91.9865 138.692 86.089 142.499C80.2418 146.273 74.9374 151.132 70.7462 156.689C70.261 157.333 69.7789 157.977 69.3133 158.635C69.2739 158.691 69.3668 158.741 69.4058 158.686C73.5214 152.93 78.7783 147.973 84.7262 144.148C90.6445 140.343 97.1284 137.522 103.986 135.913C111.079 134.248 118.434 134.183 125.539 132.584C128.992 131.807 132.382 130.64 135.406 128.772C136.956 127.815 138.332 126.646 139.744 125.503C141.16 124.358 142.667 123.252 144.438 122.735C146.399 122.162 148.493 122.256 150.491 121.861C152.183 121.527 153.804 120.895 155.318 120.076C158.456 118.38 161.119 115.921 163.604 113.395C164.219 112.77 164.821 112.135 165.414 111.489C165.483 111.414 165.372 111.308 165.299 111.38Z" fill="#DBDBDB"/>
<path d="M167.993 65.8255C167.11 61.452 165.132 57.2638 162.117 53.9554C161.739 53.5402 161.354 53.1325 160.952 52.7404C160.903 52.6927 160.831 52.769 160.879 52.8169C164.074 55.9988 166.044 60.1372 167.02 64.5034C168.008 68.925 167.866 73.5244 167.045 77.9625C166.179 82.6449 164.407 87.0666 161.942 91.1326C159.253 95.5667 155.86 99.5234 152.128 103.11C148.331 106.758 144.157 109.98 139.906 113.076C139.379 113.46 138.849 113.842 138.319 114.222C138.297 114.238 138.319 114.274 138.342 114.258C142.683 111.184 146.931 107.984 150.95 104.495C154.928 101.042 158.671 97.2192 161.682 92.88C164.473 88.8578 166.653 84.4467 167.764 79.6621C168.818 75.1233 168.916 70.398 167.993 65.8255Z" fill="#DBDBDB"/>
<path d="M40.4306 170.947C40.965 167.928 41.4265 164.843 41.3631 161.769C41.3011 158.764 40.5179 155.873 40.0789 152.916C39.6432 149.983 39.3425 146.768 40.6574 144.003C40.7043 143.904 40.5657 143.782 40.4924 143.882C38.8881 146.065 38.4116 148.77 38.5615 151.437C38.7314 154.459 39.7026 157.388 39.9496 160.406C40.2079 163.561 39.7718 166.701 39.2829 169.811C38.82 172.756 38.4403 175.732 38.472 178.718C38.5049 181.813 39.0497 184.864 40.3733 187.678C40.4023 187.739 40.492 187.683 40.4633 187.622C37.9978 182.382 39.4722 176.361 40.4306 170.947Z" fill="white"/>
<path d="M67.4491 96.6036C65.019 99.9641 63.0071 103.615 61.3205 107.4C60.4915 109.261 59.8048 111.202 59.2342 113.157C58.6537 115.146 58.2634 117.177 57.8202 119.199C57.3872 121.174 56.8949 123.161 56.0086 124.988C55.1012 126.859 53.757 128.406 52.4591 130.01C51.1924 131.574 50.165 133.208 49.4289 135.086C48.7481 136.823 48.3331 138.649 48.0089 140.482C47.2481 144.784 47.1566 149.241 45.497 153.34C45.472 153.402 45.5609 153.454 45.5896 153.391C47.1772 149.906 47.8699 146.146 48.6966 142.432C49.5291 138.693 50.4063 134.978 52.5732 131.751C53.7198 130.044 55.132 128.522 56.1741 126.743C57.1878 125.013 57.8288 123.076 58.3156 121.139C58.8181 119.14 59.17 117.107 59.6395 115.101C60.1029 113.12 60.6593 111.159 61.32 109.235C62.0873 107.001 62.9607 104.81 64.016 102.694C65.0555 100.611 66.2787 98.6039 67.588 96.6803C67.6462 96.5949 67.5077 96.5227 67.4491 96.6036Z" fill="white"/>
<path d="M58.5693 138.971C56.9926 139.602 55.6907 140.724 54.7313 142.117C53.6037 143.754 53.0943 145.63 52.7128 147.56C52.328 149.506 51.9865 151.465 51.6762 153.424C51.3788 155.303 51.0816 157.153 50.5326 158.979C49.9054 161.066 49.0433 163.133 47.832 164.95C47.794 165.007 47.8865 165.056 47.9246 165.001C50.0248 161.942 51.3753 158.507 52.4471 154.97C53.0009 153.143 53.3826 151.303 53.7224 149.426C54.0762 147.472 54.4801 145.538 55.1982 143.68C55.5463 142.78 55.9409 141.96 56.5136 141.178C57.0923 140.388 57.8314 139.715 58.6965 139.253C58.8501 139.171 58.7346 138.905 58.5693 138.971Z" fill="white"/>
<path d="M95.6349 118.929C93.0899 119.58 90.5746 120.318 88.1058 121.217C85.6461 122.113 83.2786 123.205 80.9651 124.426C78.6914 125.627 76.5192 127.088 74.5885 128.787C73.6245 129.636 72.6897 130.531 71.842 131.497C70.9952 132.461 70.1459 133.471 69.5162 134.594C68.8481 135.786 68.1273 136.982 67.3478 138.105C66.5381 139.271 65.5895 140.288 64.1336 140.566C64.0665 140.578 64.0983 140.678 64.1643 140.667C66.5164 140.268 67.9588 138.225 69.2679 136.434C70.7746 134.373 72.5437 132.433 74.4106 130.691C78.1996 127.156 82.5961 124.334 87.2842 122.151C89.9862 120.893 92.7988 119.845 95.6595 119.01C95.7118 118.995 95.6876 118.916 95.6349 118.929Z" fill="white"/>
<path d="M71.9201 111.124C70.3065 110.633 69.1134 111.978 68.1954 113.102C67.6462 113.774 67.099 114.45 66.6532 115.198C66.2495 115.874 65.5179 116.861 64.5967 116.552C64.5319 116.531 64.5069 116.633 64.571 116.655C65.2297 116.876 65.8642 116.739 66.4188 116.325C67.0554 115.85 67.6671 115.264 68.1908 114.669C68.7503 114.033 69.286 113.38 69.7998 112.708C70.2753 112.085 70.9651 111.3 71.8394 111.447C72.0499 111.483 72.1268 111.187 71.9201 111.124Z" fill="white"/>
<path d="M73.1267 86.2018C72.8482 86.7271 72.552 87.2205 72.1149 87.634C71.697 88.0293 71.245 88.39 70.8356 88.7944C70.4314 89.1938 70.0191 89.6318 69.7782 90.1525C69.5717 90.5987 69.3221 91.2063 69.5071 91.6884C69.5242 91.7329 69.5778 91.7368 69.604 91.6986C69.7572 91.4757 69.8277 91.2289 69.9661 90.996C70.1088 90.7559 70.279 90.5433 70.4533 90.3263C70.815 89.8762 71.2114 89.463 71.6064 89.0429C71.9923 88.6322 72.3429 88.216 72.6758 87.7613C72.9879 87.335 73.2898 86.8266 73.3659 86.2957C73.3855 86.1588 73.2003 86.0632 73.1267 86.2018Z" fill="white"/>
<path d="M53.865 113.26C52.5504 113.871 52.7151 115.617 52.7042 116.804C52.6906 118.281 52.0656 119.971 52.683 121.394C52.7189 121.477 52.8399 121.465 52.8433 121.368C52.8686 120.661 52.981 120.021 53.1312 119.332C53.2771 118.662 53.4589 118.003 53.4569 117.312C53.4533 116.063 52.7631 114.385 54.0067 113.489C54.1501 113.386 54.0206 113.187 53.865 113.26Z" fill="white"/>
<path d="M64.8416 94.6114C64.7724 94.602 64.7047 94.6093 64.6359 94.6038C64.6 94.5913 64.5653 94.5914 64.5161 94.5953C64.3868 94.5765 64.2325 94.6935 64.1509 94.7699C64.0297 94.8835 63.9341 95.0177 63.8815 95.1756C63.8143 95.3772 63.8276 95.5711 63.8651 95.7768C63.8733 95.8221 63.8842 95.867 63.8981 95.9109C63.9089 95.9446 63.9214 95.9791 63.9388 96.01C63.9483 96.0266 64.0014 96.101 63.9964 96.086L64.0072 96.1079C64.0182 96.1272 64.0286 96.147 64.0405 96.1657C64.0699 96.2119 64.1034 96.2479 64.1462 96.2814C64.2657 96.3749 64.4046 96.3281 64.4578 96.1909C64.489 96.1104 64.4837 96.0347 64.4903 95.9508C64.4901 95.9155 64.4911 95.9144 64.4932 95.9474C64.5014 95.9125 64.5061 95.8771 64.5074 95.841C64.5063 95.8051 64.4987 95.7674 64.4948 95.7316C64.4787 95.5874 64.4679 95.4398 64.4688 95.2946C64.4689 95.2607 64.4721 95.2273 64.4745 95.1934C64.476 95.1803 64.4768 95.1671 64.4769 95.1539C64.4775 95.1321 64.4875 95.1012 64.4923 95.0837C64.4944 95.076 64.5112 95.0353 64.512 95.0305C64.5345 94.9859 64.5586 94.9414 64.5873 94.9008C64.5785 94.912 64.5812 94.9087 64.5955 94.8906C64.6096 94.8747 64.6226 94.8578 64.6345 94.84C64.6405 94.829 64.6388 94.8144 64.643 94.8013C64.6463 94.7988 64.6884 94.7653 64.6754 94.779C64.6805 94.7736 64.7043 94.7275 64.7019 94.7297C64.7261 94.7075 64.7993 94.7147 64.8301 94.7155C64.8887 94.7172 64.9013 94.6195 64.8416 94.6114Z" fill="white"/>
<path d="M41.982 138.951C41.9744 138.935 41.9751 138.937 41.9841 138.956L41.9573 138.896C41.9484 138.879 41.9378 138.862 41.9285 138.844C41.9212 138.831 41.9142 138.817 41.9073 138.803C41.9063 138.8 41.8897 138.762 41.8894 138.761C41.8254 138.596 41.8139 138.482 41.8083 138.313C41.8031 138.152 41.7952 138.008 41.8604 137.857C41.8918 137.784 41.9174 137.708 41.9612 137.641C42.0103 137.567 42.07 137.5 42.1357 137.44C42.1807 137.399 42.12 137.328 42.0697 137.359C41.9141 137.453 41.7559 137.591 41.6599 137.746C41.5635 137.902 41.4578 138.09 41.4211 138.27C41.3794 138.475 41.3932 138.695 41.4387 138.897C41.4876 139.116 41.6026 139.295 41.7649 139.447C41.8468 139.525 41.9777 139.53 42.0638 139.458C42.1426 139.392 42.1861 139.254 42.1152 139.163C42.0632 139.097 42.0193 139.027 41.982 138.951Z" fill="white"/>
<path d="M116.778 135.164C113.723 135.145 110.608 135.414 107.595 135.913C104.528 136.421 101.513 137.082 98.5766 138.118C92.7186 140.185 87.2828 143.3 82.4104 147.137C79.6728 149.293 77.1703 151.712 74.8131 154.275C74.7671 154.325 74.8424 154.397 74.8897 154.347C79.1373 149.932 84.2283 146.375 89.607 143.477C92.2904 142.032 95.0783 140.814 97.9229 139.724C99.3253 139.187 100.743 138.684 102.176 138.233C103.624 137.777 105.079 137.294 106.554 136.932C108.223 136.521 109.916 136.131 111.617 135.878C113.336 135.622 115.049 135.43 116.781 135.286C116.859 135.279 116.857 135.165 116.778 135.164Z" fill="white"/>
<path d="M146.609 123.851C145.432 123.475 144.052 123.788 142.985 124.361C141.794 125 140.856 125.995 139.895 126.924C137.941 128.816 135.774 130.407 133.235 131.422C133.173 131.447 133.202 131.547 133.266 131.524C135.598 130.664 137.964 129.555 139.933 128.017C141.902 126.479 143.791 124.024 146.558 124.32C146.838 124.35 146.849 123.928 146.609 123.851Z" fill="white"/>
<path d="M177.66 42.6683C177.177 41.7459 176.537 40.9498 175.887 40.1437C175.246 39.3501 174.605 38.5373 174.353 37.5279C174.303 37.33 173.993 37.383 174.001 37.5842C174.077 39.5925 175.459 41.1665 176.536 42.7585C177.794 44.6181 178.794 46.5677 179.149 48.8054C179.165 48.9064 179.324 48.9084 179.313 48.8014C179.094 46.7185 178.638 44.5366 177.66 42.6683Z" fill="white"/>
<path d="M165.199 38.0428C163.037 36.4979 160.186 36.9513 157.765 37.4577C157.039 37.6095 156.313 37.7247 155.572 37.7551C154.919 37.7818 154.301 37.6678 153.673 37.4977C152.523 37.1863 151.458 36.6061 150.518 35.8791C149.485 35.08 148.485 34.2211 147.411 33.4772C147.355 33.4386 147.303 33.532 147.36 33.5698C149.331 34.8914 150.752 36.8952 152.768 38.149C155.266 39.7015 158.217 38.7418 160.801 37.9663C162.247 37.5326 163.786 37.3255 165.146 38.14C165.208 38.1776 165.256 38.0833 165.199 38.0428Z" fill="white"/>
<path d="M179.621 56.1C178.968 54.437 177.455 53.3668 176.199 52.1759C174.937 50.9787 173.665 49.7652 172.605 48.3806C171.395 46.7987 170.441 45.0635 170.027 43.1003C170.013 43.0328 169.915 43.0654 169.926 43.1309C170.492 46.5535 172.37 49.5498 174.606 52.1344C175.753 53.4595 177.021 54.6793 178.297 55.8775C178.936 56.4777 179.42 57.1485 179.606 58.0181C179.787 58.8599 179.791 59.7328 179.731 60.5878C179.599 62.457 179.251 64.3809 179.833 66.2099C179.845 66.2487 179.905 66.2308 179.894 66.1915C178.944 62.866 180.917 59.4037 179.621 56.1Z" fill="white"/>
<path d="M150.608 46.5345C149.481 45.9431 148.298 45.4506 147.074 45.1024C145.589 44.6802 144.063 44.5354 142.534 44.3573C141.691 44.2589 140.849 44.1573 140.007 44.0478C139.56 43.9898 139.113 43.9317 138.668 43.8635C138.461 43.8317 138.246 43.8077 138.043 43.7575C137.985 43.7434 137.293 43.4243 137.624 43.293C137.687 43.2683 137.659 43.1696 137.594 43.1917C137.296 43.2928 137.404 43.6506 137.559 43.8478C137.731 44.067 138.017 44.1534 138.264 44.2568C138.625 44.4087 138.989 44.5535 139.361 44.6787C140.935 45.2099 142.584 45.4824 144.213 45.7888C147.03 46.3185 150.056 46.2886 152.559 47.8695C153.884 48.7063 154.966 49.8099 155.745 51.1717C155.762 51.2018 155.804 51.174 155.79 51.1439C154.752 48.9607 152.679 47.6214 150.608 46.5345Z" fill="white"/>
<path d="M162.296 61.4107C161.848 60.415 161.087 59.5386 160.378 58.7198C159.636 57.8625 158.75 57.1965 157.911 56.4431C157.105 55.7193 156.354 54.7883 156.544 53.646C156.554 53.5888 156.477 53.5532 156.446 53.6076C155.961 54.4655 156.125 55.4915 156.594 56.3165C157.159 57.3111 158.154 58.0281 158.996 58.773C159.457 59.1814 159.933 59.5766 160.407 59.9713C160.858 60.3475 161.345 60.6794 161.702 61.1557C162.088 61.6722 162.318 62.2841 162.564 62.8752C162.822 63.4981 163.075 64.1235 163.33 64.7478C163.346 64.7879 163.409 64.7708 163.396 64.7278C163.044 63.6309 162.77 62.4621 162.296 61.4107Z" fill="white"/>
<path d="M141.558 39.8478C140.341 38.5608 138.763 37.6293 136.966 37.5336C136.018 37.4831 134.995 37.6376 134.118 37.1833C133.961 37.1023 133.73 36.9844 133.614 36.8475C133.42 36.6191 133.654 36.3772 133.765 36.1502C134.01 35.6481 134.31 35.1693 134.596 34.6892C134.673 34.5607 134.486 34.4225 134.385 34.5342C133.963 35.0021 133.53 35.453 133.087 35.8987C132.746 36.2419 132.468 36.6865 132.63 37.185C132.962 38.2113 134.147 38.5979 135.125 38.5838C136.285 38.5672 137.417 38.2371 138.581 38.4429C139.676 38.6365 140.709 39.1235 141.485 39.9244C141.533 39.9735 141.605 39.8971 141.558 39.8478Z" fill="white"/>
<path d="M169.611 34.0685C169.356 33.7011 169.048 33.3894 168.767 33.0448C168.566 32.7983 168.412 32.5326 168.382 32.2152C168.367 32.0589 168.383 31.9439 168.462 31.8046C168.54 31.6666 168.576 31.5584 168.7 31.4711C168.779 31.4158 168.746 31.2906 168.646 31.2902C168.464 31.2892 168.263 31.3192 168.122 31.4418C167.975 31.5707 167.894 31.7386 167.815 31.9129C167.614 32.3569 167.657 32.8174 167.885 33.2479C168.13 33.7114 168.522 34.0584 168.95 34.3461C169.182 34.5016 169.426 34.6355 169.654 34.7964C169.892 34.9648 170.128 35.1334 170.375 35.2887C170.42 35.3165 170.476 35.2576 170.446 35.2146C170.175 34.8262 169.88 34.4566 169.611 34.0685Z" fill="white"/>
<path d="M148.352 28.0367C148.299 27.9703 148.243 27.9062 148.185 27.843C148.157 27.8115 148.13 27.777 148.095 27.7513L147.992 27.6736C147.92 27.6193 147.848 27.565 147.773 27.515L147.673 27.4483C147.65 27.4332 147.628 27.4248 147.606 27.4185L147.606 27.4144C147.606 27.4035 147.616 27.3903 147.63 27.378C147.659 27.353 147.696 27.3429 147.73 27.364C147.789 27.4009 147.834 27.3102 147.781 27.2714C147.706 27.2174 147.606 27.2429 147.541 27.2994C147.478 27.3546 147.424 27.4521 147.463 27.5353C147.476 27.6133 147.556 27.6696 147.613 27.7207C147.675 27.7769 147.74 27.8289 147.805 27.8813C147.836 27.9067 147.867 27.9324 147.899 27.9574C147.937 27.9875 147.976 28.0099 148.019 28.0327C148.094 28.073 148.169 28.112 148.247 28.1478C148.279 28.1627 148.317 28.1599 148.342 28.1331C148.364 28.1098 148.374 28.0635 148.352 28.0367Z" fill="white"/>
<path d="M133.306 30.4932C132.788 30.3982 132.246 30.4171 131.734 30.2969C131.518 30.2463 131.398 30.137 131.466 29.9059C131.502 29.7832 131.576 29.6689 131.648 29.5647C131.693 29.4997 131.763 29.4032 131.774 29.3678C131.754 29.4334 131.855 29.4571 131.877 29.3935C131.921 29.2643 131.751 29.1915 131.648 29.1743C131.399 29.1332 131.202 29.4446 131.091 29.6255C130.939 29.8714 130.881 30.1732 131.04 30.4316C131.192 30.6787 131.476 30.782 131.748 30.8281C132.84 31.0129 134.57 30.7816 135.114 32.0303C135.161 32.1393 135.335 32.0951 135.296 31.9752C135.025 31.1306 134.13 30.6446 133.306 30.4932Z" fill="white"/>
<path d="M236.232 231.578C246.985 242.106 248.79 258.392 246.524 272.657C246.465 272.981 245.965 272.893 245.965 272.589C245.965 269.341 246.063 266.123 246.053 262.915C245.994 262.768 245.945 262.63 245.886 262.483C243.08 260.442 240.5 258.137 238.901 254.978C237.105 251.446 236.399 247.462 235.025 243.773C234.898 243.42 235.274 243.524 235.521 243.706C242.062 248.53 244.147 253.721 246.023 260.658C245.935 257.058 245.661 253.457 244.886 249.856C243.473 243.273 240.677 236.749 235.947 231.863C235.771 231.676 236.046 231.392 236.232 231.578Z" fill="#00633A"/>
<path d="M234.21 232.805C232.36 232.868 231.2 235.825 229.759 236.687C228.996 237.146 228.253 237.118 227.717 236.367C226.288 234.372 228.249 231.913 230.091 230.537C228.774 231.079 227.68 232.031 226.259 232.301C225.398 232.459 224.73 232.14 224.529 231.265C223.903 228.546 227.312 227.337 229.652 227.28C228.517 226.492 225.267 224.348 226.993 223.294C228.744 222.236 232.558 225.301 233.802 226.31C235.631 227.794 237.812 230.011 237.894 232.332C238.001 235.041 235.633 233.373 234.21 232.805Z" fill="#FEAE0D"/>
<path opacity="0.1" d="M234.21 232.805C232.36 232.868 231.2 235.825 229.759 236.687C228.996 237.146 228.253 237.118 227.717 236.367C226.288 234.372 228.249 231.913 230.091 230.537C228.774 231.079 227.68 232.031 226.259 232.301C225.398 232.459 224.73 232.14 224.529 231.265C223.903 228.546 227.312 227.337 229.652 227.28C228.517 226.492 225.267 224.348 226.993 223.294C228.744 222.236 232.558 225.301 233.802 226.31C235.631 227.794 237.812 230.011 237.894 232.332C238.001 235.041 235.633 233.373 234.21 232.805Z" fill="#00633A"/>
<path d="M234.743 233.261C232.378 232.186 227.834 233.734 227.448 232.838C226.665 231.016 230.296 229.766 232.256 229.524C230.45 229.035 226.992 228.256 227.098 226.516C227.228 224.39 232.403 226.218 235.022 228.226C238.322 230.757 238.3 233.198 237.755 233.687C237.006 234.357 235.134 233.439 234.743 233.261Z" fill="#FEAE0D"/>
<path d="M260.719 230.535C249.573 240.646 247.149 256.852 248.872 271.193C248.918 271.519 249.421 271.45 249.433 271.146C249.557 267.901 249.581 264.681 249.713 261.476C249.777 261.331 249.831 261.195 249.896 261.05C252.777 259.118 255.444 256.912 257.162 253.816C259.09 250.355 259.948 246.401 261.461 242.767C261.601 242.419 261.221 242.508 260.968 242.681C254.248 247.253 251.968 252.361 249.828 259.222C250.053 255.627 250.465 252.04 251.376 248.471C253.038 241.946 256.081 235.533 260.992 230.83C261.175 230.651 260.912 230.356 260.719 230.535Z" fill="#00633A"/>
<path d="M262.693 231.839C264.539 231.971 265.586 234.97 266.994 235.887C267.738 236.375 268.481 236.375 269.046 235.644C270.549 233.706 268.684 231.173 266.895 229.728C268.191 230.32 269.248 231.314 270.657 231.637C271.512 231.827 272.192 231.534 272.426 230.667C273.155 227.975 269.794 226.637 267.458 226.49C268.622 225.746 271.952 223.728 270.266 222.609C268.557 221.485 264.629 224.402 263.348 225.363C261.464 226.776 259.2 228.909 259.03 231.225C258.82 233.928 261.249 232.352 262.693 231.839Z" fill="#FEAE0D"/>
<path opacity="0.1" d="M262.693 231.839C264.539 231.971 265.586 234.97 266.994 235.887C267.738 236.375 268.481 236.375 269.046 235.644C270.549 233.706 268.684 231.173 266.895 229.728C268.191 230.32 269.248 231.314 270.657 231.637C271.512 231.827 272.192 231.534 272.426 230.667C273.155 227.975 269.794 226.637 267.458 226.49C268.622 225.746 271.952 223.728 270.266 222.609C268.557 221.485 264.629 224.402 263.348 225.363C261.464 226.776 259.2 228.909 259.03 231.225C258.82 233.928 261.249 232.352 262.693 231.839Z" fill="#00633A"/>
<path d="M262.141 232.274C264.546 231.29 269.027 233.009 269.447 232.129C270.299 230.338 266.718 228.951 264.769 228.635C266.591 228.214 270.077 227.568 270.037 225.824C269.988 223.695 264.748 225.325 262.054 227.232C258.66 229.635 258.589 232.075 259.115 232.585C259.838 233.283 261.744 232.437 262.141 232.274Z" fill="#FEAE0D"/>
<path d="M249.323 257.238C248.5 262.567 247.48 268.076 245.862 273.225C245.708 273.694 245.012 273.574 245.084 273.068C245.816 268.141 247.15 263.306 247.882 258.379C248.626 253.395 249.024 248.341 248.738 243.299C248.269 234.998 246.015 226.167 240.598 219.671C240.479 219.517 240.731 219.3 240.854 219.443C251.699 232.088 249.974 247.593 249.964 248.982C251.499 243.747 253.081 237.746 258.889 232.415C259.14 232.185 259.335 232.294 259.294 232.685C258.255 242.395 255.555 247.465 249.926 252.656C249.766 254.195 249.568 255.726 249.323 257.238Z" fill="#00633A"/>
<path d="M240.499 221.126C238.548 220.26 235.857 222.744 233.927 222.913C232.904 223.005 232.148 222.602 231.97 221.552C231.492 218.764 234.763 217.199 237.368 216.699C235.728 216.597 234.114 217.036 232.504 216.601C231.531 216.331 230.998 215.663 231.23 214.654C231.949 211.518 236.095 211.98 238.551 213.098C237.771 211.709 235.478 207.849 237.8 207.625C240.148 207.408 242.563 212.508 243.346 214.181C244.496 216.641 245.643 220.039 244.56 222.488C243.308 225.353 241.69 222.432 240.499 221.126Z" fill="#FEAE0D"/>
<path opacity="0.1" d="M240.499 221.126C238.548 220.26 235.857 222.744 233.927 222.913C232.904 223.005 232.148 222.602 231.97 221.552C231.492 218.764 234.763 217.199 237.368 216.699C235.728 216.597 234.114 217.036 232.504 216.601C231.531 216.331 230.998 215.663 231.23 214.654C231.949 211.518 236.095 211.98 238.551 213.098C237.771 211.709 235.478 207.849 237.8 207.625C240.148 207.408 242.563 212.508 243.346 214.181C244.496 216.641 245.643 220.039 244.56 222.488C243.308 225.353 241.69 222.432 240.499 221.126Z" fill="#00633A"/>
<path d="M240.826 221.868C238.913 219.562 233.419 218.88 233.469 217.757C233.574 215.472 237.97 216.003 240.125 216.738C238.499 215.322 235.303 212.773 236.289 211.021C237.494 208.881 241.943 213.382 243.649 216.784C245.799 221.071 244.548 223.593 243.736 223.825C242.622 224.144 241.141 222.249 240.826 221.868Z" fill="#FEAE0D"/>
<path d="M256.458 260.161L261.241 296.707H232.134C232.734 293.469 238.151 260.119 238.151 260.119L256.458 260.161Z" fill="#FEAE0D"/>
<path d="M206.892 296.707H144.951C143.244 278.356 141.584 260.106 140.233 245.141C140.18 244.57 140.126 243.999 140.072 243.427C138.312 223.927 137.115 210.454 137.115 210.454H195.845C195.845 210.454 195.852 210.515 195.865 210.629C196.248 213.626 201.53 254.777 206.892 296.707Z" fill="#455A64"/>
<path d="M154.157 296.707H153.196C150.918 276.649 149.003 256.55 147.249 236.445V236.425C147.128 235.054 147 233.69 146.886 232.313V232.306C146.483 227.596 146.086 222.885 145.696 218.175C145.683 218.027 145.905 218.027 145.925 218.175C146.362 222.354 146.778 226.52 147.202 230.707V230.713C147.349 232.225 147.511 233.737 147.659 235.249V235.276C149.251 251.087 150.837 266.885 152.571 282.676C153.081 287.353 153.605 292.03 154.157 296.707Z" fill="#263238"/>
<path d="M187.363 210.454L179.461 262.538L179.185 264.299L179.044 265.233L178.997 265.542L178.809 266.839L178.48 269.022L178.426 269.345L178.231 270.615L174.273 296.707H138.088C135.145 280.096 132.215 263.559 129.722 249.482C129.655 249.112 129.594 248.756 129.534 248.4V248.393C125.61 226.252 122.814 210.454 122.814 210.454H187.363Z" fill="#263238"/>
<path d="M195.896 210.401C195.896 210.401 195.882 210.475 195.862 210.629C195.627 212.154 194.545 220.131 192.455 230.405C192.354 230.916 192.247 231.433 192.139 231.957C190.09 241.788 187.147 253.453 183.182 263.533C183.115 263.714 183.054 263.882 182.981 264.064C182.981 264.064 181.798 264.433 179.661 265.273C179.446 265.354 179.224 265.448 178.996 265.542C178.317 265.817 177.551 266.133 176.718 266.489C176.328 266.671 175.925 266.852 175.502 267.04C173.042 268.136 170.052 269.587 166.638 271.435L166.155 271.697C165.993 271.784 165.832 271.872 165.671 271.959V271.966C165.664 271.999 165.657 272.134 165.637 272.349V272.356C165.496 274.224 164.354 284.175 163.144 296.708H104.139C104.65 289.585 105.134 282.778 106.081 273.303C106.451 269.574 104.186 256.034 104.535 252.56C106.854 229.498 113.123 210.401 113.123 210.401H195.896Z" fill="#455A64"/>
<path d="M185.936 262.528C178.918 264.943 172.144 268.372 165.667 271.967C165.413 272.108 165.581 272.502 165.856 272.384C172.684 269.452 179.646 266.646 186.304 263.342C186.827 263.083 186.474 262.342 185.936 262.528Z" fill="#263238"/>
<path d="M148.61 226.108C148.543 225.275 148.613 224.385 148.35 223.584C148.309 223.459 148.143 223.473 148.104 223.59C147.871 224.282 147.893 225.046 147.818 225.77C147.733 226.606 147.623 227.44 147.533 228.278C147.35 229.984 147.058 231.691 146.639 233.356C145.842 236.523 144.284 239.397 141.983 241.723C139.74 243.991 137.036 245.668 134.107 246.909C130.832 248.297 127.385 248.814 124.002 249.808C123.859 249.85 123.901 250.054 124.042 250.058C127.685 250.171 131.601 249.205 134.985 247.904C138.018 246.738 140.906 244.98 143.2 242.663C145.577 240.262 147.183 237.335 147.989 234.055C148.399 232.384 148.574 230.68 148.645 228.963C148.685 228.004 148.686 227.063 148.61 226.108Z" fill="#263238"/>
<path d="M109.562 296.707C110.097 289.963 111.247 276.442 111.858 269.709C110.931 265.192 110.155 259.711 110.035 254.786C109.957 252.949 110.207 250.929 110.472 249.107C112.611 236.078 115.667 223.219 118.795 210.4C116.242 222.734 113.028 236.858 111.078 249.196C110.825 250.996 110.6 252.967 110.659 254.776C110.762 259.788 111.467 264.801 112.405 269.722C111.734 276.451 110.31 289.985 109.562 296.707Z" fill="white"/>
<path d="M113.386 296.707C113.92 289.963 115.071 276.442 115.681 269.709C114.752 265.194 113.975 259.711 113.857 254.786C113.782 252.949 114.029 250.929 114.294 249.107C116.431 236.078 119.489 223.219 122.619 210.4C120.064 222.734 116.847 236.858 114.9 249.196C114.647 250.996 114.424 252.967 114.482 254.776C114.581 259.789 115.287 264.801 116.228 269.722C115.557 276.451 114.133 289.985 113.386 296.707Z" fill="white"/>
<path d="M198.909 243.543C198.457 243.029 196.323 242.545 194.187 236.888C193.455 234.949 192.833 232.582 192.356 229.869C192.102 228.423 191.246 221.37 191.182 221.335C191.156 221.321 191.132 221.353 191.122 221.426C191.053 221.913 191.608 228.363 191.838 230.015C192.272 233.122 192.833 235.976 193.719 238.105C195.768 243.032 198.473 244.331 198.932 244.009C199.013 243.952 198.973 243.616 198.909 243.543Z" fill="#263238"/>
<path d="M170.036 114.449C183.894 115.333 231.797 123.835 236.618 127.223C242.362 131.26 239.586 157.764 234.418 160.409C221.06 167.247 177.047 141.7 158.485 127.898C149.413 121.152 146.826 112.969 170.036 114.449Z" fill="#EB9481"/>
<path d="M195.256 151.922L195.362 117.053C195.362 117.053 173.569 112.766 159.997 113.748C149.641 114.498 149.29 120.364 154.436 124.944C171.595 140.216 195.256 151.922 195.256 151.922Z" fill="#FEAE0D"/>
<path d="M189.693 118.252C189.296 123.62 188.641 138.212 189.454 147.751C189.459 147.808 189.679 147.815 189.683 147.758C190.203 139.721 190.09 123.644 190.02 118.262C190.019 118.161 189.701 118.151 189.693 118.252Z" fill="#263238"/>
<path opacity="0.1" d="M195.269 148.669L195.257 151.925C195.257 151.925 171.594 140.214 154.436 124.943C150.502 121.44 149.78 117.19 154.284 115.05L195.269 148.669Z" fill="black"/>
<path d="M196.478 217.296L108.863 227.863C108.536 227.546 106.492 224.123 107.602 216.447C111.484 189.619 120.714 131.463 138.006 115.791C142.29 111.909 157.174 110.418 162.383 117.456C172.161 130.664 195.945 184.367 198.648 206.255C199.143 210.264 197.326 215.087 196.478 217.296Z" fill="#FEAE0D"/>
<path d="M161.143 116.093L134.934 119.108C135.067 118.943 135.194 118.785 135.32 118.627L160.693 115.707C160.851 115.833 160.997 115.96 161.143 116.093ZM166.621 124.124L129.196 128.438C129.113 128.59 129.037 128.748 128.961 128.9L166.856 124.536C166.774 124.397 166.697 124.264 166.621 124.124ZM171.226 132.7L125.053 138.014C124.996 138.166 124.939 138.318 124.882 138.477L171.435 133.112C171.365 132.972 171.296 132.833 171.226 132.7ZM175.451 141.314L121.798 147.496C121.747 147.648 121.703 147.8 121.652 147.952L175.653 141.732C175.584 141.593 175.52 141.453 175.451 141.314ZM179.428 149.96L119.074 156.914C119.036 157.066 118.992 157.212 118.954 157.364L179.612 150.378C179.549 150.238 179.485 150.099 179.428 149.96ZM183.184 158.63L116.718 166.288C116.686 166.44 116.648 166.586 116.617 166.738L183.362 159.048C183.305 158.909 183.241 158.77 183.184 158.63ZM186.744 167.327L114.641 175.63C114.615 175.782 114.584 175.928 114.546 176.08L186.908 167.745C186.851 167.605 186.794 167.466 186.744 167.327ZM190.075 176.048L112.785 184.947C112.753 185.099 112.728 185.245 112.696 185.397L190.227 176.466L190.075 176.048ZM193.147 184.795L111.1 194.239C111.075 194.397 111.049 194.549 111.024 194.695L193.286 185.219C193.242 185.08 193.198 184.934 193.147 184.795ZM195.871 193.586L109.561 203.524C109.536 203.676 109.51 203.828 109.485 203.974L195.991 194.011C195.953 193.871 195.915 193.726 195.871 193.586ZM198.03 202.434L108.142 212.79C108.117 212.942 108.092 213.094 108.073 213.24L198.113 202.872C198.087 202.726 198.062 202.58 198.03 202.434ZM107.306 221.993C107.312 222.139 107.325 222.284 107.338 222.424L198.182 211.96C198.22 211.815 198.252 211.669 198.277 211.517L107.306 221.993Z" fill="white"/>
<path d="M135.416 136.355C129.004 148.672 101.858 189.046 96.8094 192.086C90.7948 195.707 64.2948 184.406 63.9654 178.611C63.1135 163.628 107.657 131.748 127.787 120.352C137.624 114.783 146.155 115.726 135.416 136.355Z" fill="#EB9481"/>
<path d="M89.7065 143.512L124.525 159.239C124.525 159.239 135.526 140.269 140.116 127.458C143.617 117.684 138.395 114.99 132.125 117.845C111.218 127.363 89.7065 143.512 89.7065 143.512Z" fill="#FEAE0D"/>
<path d="M123.986 152.798C119.237 150.264 106.156 143.764 97.1028 140.651C97.0485 140.633 96.9533 140.831 97.0039 140.857C104.145 144.584 118.894 150.981 123.845 153.093C123.938 153.133 124.075 152.846 123.986 152.798Z" fill="#263238"/>
<path d="M122.026 158.126C122.906 158.391 123.773 158.684 124.635 158.99L124.287 159.105C126.686 153.952 129.389 148.957 132.217 144.03C133.164 142.39 134.125 140.761 135.124 139.135C134.555 140.959 133.814 142.716 133.04 144.451C130.678 149.636 127.908 154.623 124.762 159.373L124.613 159.596C123.741 159.125 122.876 158.642 122.026 158.126Z" fill="#263238"/>
<path d="M130.815 147.726C132.128 145.787 133.559 144.094 135.124 142.354C134.313 144.55 132.737 146.413 130.815 147.726Z" fill="#263238"/>
<path d="M130.108 223.622C130.662 228.39 99.4721 235.228 94.4876 230.224C76.1521 211.817 64.1875 186.965 63.8442 180.405C63.4486 172.844 71.4353 169.394 81.0196 172.032C93.6786 175.517 127.962 205.148 130.108 223.622Z" fill="#EB9481"/>
<path d="M90.2616 176.263C99.1206 180.152 107.732 190.498 107.75 190.511C107.897 190.616 107.76 190.893 107.677 190.835C106.147 189.759 96.1364 180.129 90.1303 176.551C90.0744 176.517 90.2019 176.236 90.2616 176.263Z" fill="#263238"/>
<path d="M129.11 219.31C129.11 219.31 133.473 233.175 129.082 244.667C126.284 251.992 124.728 263.812 102.163 270.025C96.8112 271.499 84.6923 268.536 85.8547 264.112C86.9602 259.903 97.8801 263.982 104.958 260.538C104.958 260.538 94.4055 257.46 93.1384 252.041C92.5722 249.619 91.1817 242.972 90.8366 237.643C90.8366 237.643 91.9774 237.256 93.4925 236.971C93.4925 236.971 92.4658 231.859 96.924 225.29L129.11 219.31Z" fill="#EB9481"/>
<path d="M125.974 251.579C122.556 253.861 115.231 258.577 107.898 260.351C99.752 262.321 83.5293 263.921 82.1367 257.893C81.1157 253.473 87.2558 252.318 87.2558 252.318C87.2558 252.318 80.4112 251.566 80.3622 247.371C80.3177 243.549 85.1212 242.939 85.1212 242.939C85.1212 242.939 81.0474 241.769 81.7137 238.079C82.5149 233.641 93.4007 237.085 98.0966 233.29C99.1512 232.438 125.974 251.579 125.974 251.579Z" fill="#EB9481"/>
<path d="M107.251 251.397C103.685 253.017 94.6421 254.617 87.3731 252.446C87.2082 252.397 87.1569 252.246 87.317 252.259C95.8278 252.949 103.852 251.949 107.233 251.32C107.278 251.312 107.291 251.379 107.251 251.397Z" fill="#263238"/>
<path d="M108.686 260.788C105.12 262.407 96.0769 264.008 88.8079 261.837C88.6432 261.788 88.5918 261.637 88.7518 261.65C97.2628 262.34 105.287 261.34 108.668 260.711C108.713 260.703 108.726 260.77 108.686 260.788Z" fill="#263238"/>
<path d="M105.026 243.232C101.805 244.314 92.4106 245.546 85.1203 243.094C84.9573 243.039 84.9161 242.885 85.0754 242.904C93.9378 243.991 101.6 243.58 105.012 243.155C105.057 243.149 105.067 243.218 105.026 243.232Z" fill="#263238"/>
<path d="M93.0646 235.232C93.7435 235.472 98.5984 235.065 102.421 232.395C102.512 232.332 102.44 232.18 102.335 232.218C99.7323 233.155 97.5499 233.809 97.5001 233.822C98.1841 228.486 102.399 223.795 104.336 221.986C104.458 221.872 104.278 221.691 104.146 221.772C100.084 224.289 96.8063 229.01 97.1483 233.909C96.5406 234.058 93.3822 234.865 93.0544 235.086C93.006 235.119 93.002 235.21 93.0646 235.232Z" fill="#263238"/>
<path d="M172.799 92.24C175.525 91.192 177.603 88.6863 177.87 85.7269C178.129 82.8186 176.588 80.0037 174.154 78.475C176.992 77.1625 179.106 74.5487 178.637 71.1708C178.151 67.6755 175.142 65.5407 171.753 65.5021C171.728 65.5018 171.723 65.5431 171.749 65.5462C174.827 65.9164 177.669 67.9935 178.075 71.2241C178.421 73.9865 177.005 75.9958 174.959 77.3398C176.333 75.476 177.145 73.1749 176.714 70.8488C176.239 68.2976 174.243 66.1309 171.705 65.6319C172.345 62.7497 172.027 59.4507 170.006 57.1649C168.308 55.2406 165.566 54.349 163.137 55.1702C163.203 52.241 161.505 49.3364 158.767 48.1513C156.198 47.0339 153.178 47.576 151.054 49.3231C150.827 44.9035 146.001 42.153 142.05 44.274C141.707 42.7169 140.369 41.5626 138.789 41.2321C136.97 40.8451 135.181 41.6014 133.665 42.5942C132.465 41.4706 130.751 40.8975 129.114 41.3214C126.926 41.8876 125.638 43.9491 125.818 46.0947C122.87 45.9648 119.654 46.2354 117.3 48.1693C115.364 49.7611 114.2 52.4182 114.976 54.8601C109.674 55.3337 105.994 60.2841 107.07 65.5126C105.008 66.3073 103.588 68.2389 103.25 70.4301C102.91 72.637 103.291 74.1631 103.539 74.8676C101.742 75.7269 100.735 77.7146 100.998 79.6917C101.256 81.6374 102.496 82.9979 104.035 84.0107C104.239 84.4676 104.353 84.9364 104.35 85.5512C104.339 88.3181 105.561 90.7968 107.826 92.3812C106.761 95.4619 108.893 98.9934 112.108 99.4921C112.021 102.812 114.922 105.742 118.233 105.713C118.448 108.317 119.746 110.762 121.882 112.31C123.517 113.497 125.851 114.116 127.606 113.002C127.875 114.57 129.687 115.37 131.222 115.195C131.804 115.129 132.372 114.96 132.922 114.769C133.576 114.537 134.35 114.067 135.056 114.083C135.789 114.091 136.413 114.666 137.038 114.97C137.487 115.187 137.964 115.355 138.45 115.474C142.13 116.357 146.177 114.38 147.7 110.942C150.125 112.104 152.834 110.965 154.769 109.296C155.406 108.745 155.926 108.118 156.455 107.47C156.943 106.87 157.405 106.378 158.174 106.131C158.639 105.983 159.134 105.941 159.602 105.796C161.189 105.301 162.067 103.969 162.781 102.565C169.385 105.412 174.819 98.5068 172.799 92.24ZM101.778 80.469C101.175 78.3908 101.932 76.3795 103.617 75.0805C103.675 75.2238 103.719 75.3159 103.719 75.3159C103.719 75.3159 103.307 75.856 103.136 76.1401C102.83 76.6618 102.605 77.2304 102.462 77.8198C102.163 79.0447 102.228 80.3654 102.667 81.547C102.864 82.0784 103.147 82.5597 103.466 83.0243C103.509 83.0864 103.539 83.1408 103.579 83.2007C102.776 82.4535 102.108 81.6041 101.778 80.469ZM130.31 42.4833C128.354 42.7212 126.674 44.1919 126.263 46.112C126.211 46.1091 126.157 46.1088 126.104 46.106C126.249 44.0787 126.942 42.2693 129.23 41.7189C130.829 41.334 132.135 41.9361 133.178 42.9241C133.17 42.9299 133.161 42.9353 133.154 42.941C132.278 42.5419 131.317 42.3574 130.31 42.4833ZM162.925 102.281C162.935 102.259 162.947 102.238 162.957 102.217C167.716 102.884 171.839 99.5988 172.599 95.207C172.101 100.113 168.824 104.066 162.925 102.281Z" fill="#263238"/>
<path d="M160.274 125.251C156.148 129.05 145.143 124.86 139.89 119.538C139.532 119.171 135.273 101.842 134.284 98.3768C134.077 97.6665 157.522 97.456 157.522 97.456C157.522 97.456 157.458 105.329 159.219 111.359C159.372 111.862 159.555 112.317 159.774 112.738C159.8 112.801 159.841 112.875 159.873 112.965C161.084 115.54 162.388 123.305 160.274 125.251Z" fill="#EB9481"/>
<path d="M159.873 112.966C159.212 113.253 158.485 113.513 157.673 113.718C146.199 116.721 138.129 103.935 135.12 98.1576C139.276 97.6208 157.527 97.4482 157.527 97.4482C157.527 97.4482 157.455 105.325 159.226 111.364C159.369 111.862 159.556 112.324 159.771 112.736C159.793 112.798 159.848 112.873 159.873 112.966Z" fill="#263238"/>
<path d="M123.093 71.5098C122.84 80.0298 133.197 101.616 140.174 105.154C150.289 110.283 163.758 107.36 167.335 95.9085C170.803 84.8079 156.808 56.9158 149.303 54.0185C138.249 49.751 123.466 58.9244 123.093 71.5098Z" fill="#EB9481"/>
<path d="M149.363 79.9789C149.325 79.9289 149.281 80.1019 149.312 80.1608C150.048 81.5962 150.65 83.3643 149.561 84.4726C149.527 84.5068 149.566 84.5782 149.612 84.5482C151.113 83.5597 150.291 81.2205 149.363 79.9789Z" fill="#263238"/>
<path d="M147.339 79.0739C144.911 80.0063 146.955 84.7944 149.205 83.9303C151.419 83.0799 149.375 78.292 147.339 79.0739Z" fill="#263238"/>
<path d="M157.952 76.0487C157.939 75.9874 158.098 76.0695 158.122 76.1308C158.708 77.6339 159.632 79.2568 161.184 79.1768C161.232 79.1742 161.26 79.2505 161.207 79.2646C159.471 79.7331 158.266 77.5666 157.952 76.0487Z" fill="#263238"/>
<path d="M158.615 73.9345C160.923 72.7353 163.152 77.4397 161.014 78.5504C158.909 79.6443 156.68 74.9395 158.615 73.9345Z" fill="#263238"/>
<path d="M145.232 78.1888C145.778 77.7017 146.199 77.1616 146.689 76.6241C147.241 76.0177 147.744 75.5917 147.87 74.7454C147.938 74.2917 147.53 73.7548 147.095 73.6472C146.083 73.3971 145.222 73.9716 144.527 74.6745C143.773 75.4373 143.387 76.2176 143.285 77.283C143.185 78.3159 144.513 78.8309 145.232 78.1888Z" fill="#263238"/>
<path d="M159.439 70.7333C158.73 70.9085 158.046 70.9517 157.326 71.0517C156.513 71.1653 155.878 71.339 155.109 70.9654C154.695 70.7655 154.483 70.1255 154.64 69.7056C155.005 68.7291 155.965 68.3431 156.938 68.1667C157.993 67.9753 158.855 68.0975 159.792 68.6147C160.7 69.1157 160.376 70.5024 159.439 70.7333Z" fill="#263238"/>
<path d="M153.502 93.6991C154 93.908 154.55 94.2498 155.112 94.0803C155.651 93.9175 156.17 93.4402 156.574 93.0653C156.615 93.0285 156.682 93.0596 156.67 93.1167C156.508 93.8461 155.832 94.5306 155.088 94.6836C154.363 94.8338 153.795 94.3798 153.385 93.824C153.327 93.7459 153.429 93.6689 153.502 93.6991Z" fill="#263238"/>
<path d="M153.304 88.5858C154.658 89.5552 156.173 89.7784 157.61 89.5091C158.253 89.3933 158.888 89.1656 159.48 88.8667C159.6 88.8163 159.715 88.7552 159.815 88.6878C159.919 88.6312 160.013 88.5793 160.123 88.5071C160.289 88.4123 160.328 88.2296 160.292 88.0525L160.287 88.0417C160.264 87.9873 160.246 87.9435 160.212 87.8938L160.208 87.8828L160.153 87.7522C159.728 86.5853 158.921 84.8739 158.921 84.8739C159.427 84.9182 161.96 85.0347 161.687 84.4449C159.414 79.5698 156.886 74.1475 153.594 69.7764C153.492 69.6265 153.255 69.7641 153.335 69.9229C155.335 74.6954 158.16 79.0833 160.245 83.8449C159.455 83.8557 158.145 83.8157 157.545 84.0669C157.4 84.1791 159.164 87.347 159.313 87.8864C159.313 87.8864 159.322 87.9083 159.325 87.9452C157.483 88.9606 155.789 88.9529 153.39 88.3955C153.245 88.3542 153.166 88.5023 153.304 88.5858Z" fill="#263238"/>
<path d="M158.568 88.5509C158.568 88.5509 158.09 90.3371 156.886 91.39C156.443 91.7798 155.916 92.0731 155.271 92.1481C153.949 92.307 153.484 91.22 153.333 90.1927C153.204 89.349 153.3 88.5411 153.3 88.5411C153.3 88.5411 155.695 89.4865 158.568 88.5509Z" fill="#263238"/>
<path d="M156.886 91.3901C156.443 91.7799 155.915 92.0732 155.271 92.1481C153.949 92.3071 153.484 91.2201 153.333 90.1927C154.668 89.817 156.283 90.1854 156.886 91.3901Z" fill="#FF98B9"/>
<path d="M157.556 60.7719C156.173 59.152 155.139 59.0989 155.139 59.0989C155.139 59.0989 154.29 56.8765 151.188 54.8182C147.943 52.6647 145.523 53.1567 145.523 53.1567C145.523 53.1567 142.78 51.7519 138.131 52.6321C137.064 52.8342 134.028 53.9621 133.241 54.7002C132.337 55.5513 130.973 55.4299 129.848 55.8429C128.807 56.2203 127.851 56.8272 127.045 57.6044C126.38 58.2429 125.806 59.0018 125.365 59.8528C125.111 60.351 124.924 60.8747 124.731 61.413C124.41 62.2992 123.948 62.7442 123.251 63.2797C121.764 64.4325 120.842 66.1854 120.681 68.2746C120.587 69.4857 120.795 70.6587 121.203 71.8459C121.7 73.2799 120.473 74.5226 120.394 75.9562C120.261 78.275 121.661 80.4551 123.648 81.3655C122.314 83.412 122.778 86.6413 124.675 88.5869C126.144 90.0951 128.061 90.2715 129.853 90.0864C130.189 90.0516 130.514 89.9778 130.826 89.8762C134.353 89.1351 136.203 84.2163 133.467 80.745C133.464 80.7331 133.462 80.7237 133.459 80.7119C133.459 80.7119 135.717 79.1558 136.745 75.7181C137.374 73.6146 136.923 71.2401 136.098 69.0732C141.277 70.0741 146.039 65.2424 144.698 59.6096C146.389 60.4514 150.647 61.3206 152.026 60.2188C154.573 64.7525 158.416 65.3142 159.243 64.961C159.359 64.9115 159.143 62.6324 157.556 60.7719ZM133.602 87.1768C134.172 85.8038 134.348 84.1024 133.521 80.9637C134.872 83.0685 134.671 85.4206 133.602 87.1768ZM141.034 67.4121C143.162 65.8164 144.458 63.0818 144.362 59.8925C144.88 63.4569 143.41 65.969 141.034 67.4121Z" fill="#263238"/>
<path d="M133.557 88.7536C133.557 88.7536 126.296 82.9539 123.518 85.7524C120.74 88.5512 127.703 98.0084 132.022 98.3104C136.34 98.6116 136.697 94.6194 136.697 94.6194L133.557 88.7536Z" fill="#EB9481"/>
<path d="M125.584 88.4137C125.52 88.4268 125.534 88.5179 125.594 88.5241C128.649 88.8249 130.831 90.932 132.61 93.2586C131.501 92.4881 130.233 92.261 129.165 93.6253C129.109 93.6968 129.21 93.7883 129.282 93.7492C130.329 93.1804 131.193 93.1364 132.212 93.8089C132.933 94.2852 133.535 94.9792 134.134 95.598C134.333 95.8043 134.735 95.5439 134.56 95.2903C134.547 95.2718 134.532 95.2527 134.519 95.2337C133.562 91.7346 129.423 87.6626 125.584 88.4137Z" fill="#263238"/>
<path d="M195.929 96.3517C195.443 91.5767 230.627 93.2268 233.027 99.8697C241.854 124.305 243.541 147.639 241.077 153.728C238.236 160.747 228.18 164.741 220.612 158.295C210.616 149.782 197.621 112.998 195.929 96.3517Z" fill="#EB9481"/>
<path d="M227.056 72.0227C231.534 79.1809 233.562 99.6772 232.267 103.746C230.972 107.814 202.991 110.401 200.002 107.198C197.014 103.994 188.195 80.1705 190.045 72.7209C191.895 65.2711 222.922 65.4153 227.056 72.0227Z" fill="#EB9481"/>
<path d="M197.786 103.403C197.786 103.403 190.768 96.5849 182.935 92.9867C176.348 89.9613 166.226 86.213 167.72 82.6104C170.788 75.2136 196.028 84.5707 196.028 84.5707C196.028 84.5707 206.501 90.4866 204.111 98.084C202.612 102.849 197.786 103.403 197.786 103.403Z" fill="#EB9481"/>
<g opacity="0.6">
<path d="M185.219 72.6005L235.135 74.7956C236.883 74.8724 241.276 76.2929 241.185 78.363C241.094 80.4331 240.718 88.9773 240.718 88.9773C240.718 88.9773 240.342 97.5193 240.251 99.5894C240.16 101.659 235.66 102.689 233.911 102.612L183.995 100.417L183.996 100.413C182.06 100.289 176.502 99.709 171.932 97.3136C166.972 94.7162 164.298 92.1419 164.298 92.1419L163.034 92.0864L163.003 92.7857L162.326 92.7558L162.356 92.0565L161.947 92.0386L161.916 92.7379L161.238 92.708L161.269 92.0087L159.806 91.9444L160.379 78.9168L161.842 78.9811L161.872 78.284L162.55 78.3137L162.52 79.011L162.929 79.029L162.96 78.3318L163.638 78.3616L163.607 79.0588L164.871 79.1143C164.871 79.1143 167.761 76.7848 172.93 74.6307C177.692 72.6478 183.28 72.5582 185.219 72.6048L185.219 72.6005Z" fill="#EBEBEB"/>
</g>
<path d="M193.147 75.0402L234.837 76.8735C236.323 76.9388 238.985 78.1004 238.907 79.8573C238.83 81.6185 238.511 88.8799 238.511 88.8799C238.511 88.8799 238.191 96.1391 238.114 97.9003C238.037 99.6572 235.069 100.571 233.583 100.506L183.639 98.3096L183.639 98.2967C182.029 98.17 178.695 97.4474 175.346 96.4339C170.897 95.088 165.126 90.6803 165.05 90.6468C165.109 89.3663 157.877 92.1662 157.62 90.8424C157.02 87.7489 167.572 85.5325 177.095 83.875C186.474 82.2426 193.147 75.0402 193.147 75.0402Z" fill="#DBDBDB"/>
<path opacity="0.2" d="M188.877 78.2306C188.877 78.2306 181.925 77.3291 177.363 78.0799C173.386 78.7346 169.376 80.9705 169.529 81.2869C169.682 81.6033 173.352 83.7422 173.877 83.7176C174.402 83.693 176.151 82.3881 179.408 82.0072C182.665 81.6263 188.693 82.4156 188.693 82.4156L188.877 78.2306Z" fill="white"/>
<path opacity="0.4" d="M188.79 80.2158C188.79 80.2158 181.837 79.3144 177.276 80.0652C173.298 80.7198 169.288 82.9556 169.441 83.2721C169.594 83.5885 170.38 83.8525 170.906 83.828C171.431 83.8034 174.119 82.0064 179.443 81.2037C182.686 80.7149 188.729 81.612 188.729 81.612L188.79 80.2158Z" fill="white"/>
<path opacity="0.2" d="M230.186 79.5281C232.022 79.6089 233.706 79.6829 234.87 80.2993C236.254 81.033 237.232 82.3014 237.102 83.2088C236.955 84.2277 236.229 84.288 235.824 84.0725C234.66 83.4561 231.858 83.3329 230.022 83.2521L206.842 82.2628C206.45 82.2456 205.612 82.6257 205.612 82.6257L201.023 82.4239L201.187 78.6999L205.776 78.9017C205.776 78.9017 206.613 78.5216 207.006 78.5389L230.186 79.5281Z" fill="white"/>
<path opacity="0.3" d="M177.739 91.0916C177.849 88.6024 184.541 89.3148 192.083 89.6465C199.624 89.9781 204.421 89.5648 204.306 92.1913C204.138 96.011 194.698 94.7154 191.341 94.5678C187.983 94.4201 177.603 94.1915 177.739 91.0916Z" fill="white"/>
<path d="M161.261 78.1734L160.62 92.7645L163.807 92.9047L164.448 78.3135L161.261 78.1734Z" fill="#FEAE0D"/>
<path d="M161.945 104.892C160.741 101.043 161.265 97.4537 163.114 96.8754C164.964 96.2971 167.439 98.9489 168.642 102.798C169.846 106.648 169.322 110.237 167.473 110.815C165.624 111.393 163.149 108.742 161.945 104.892Z" fill="#FEAE0D"/>
<path opacity="0.1" d="M161.945 104.892C160.741 101.043 161.265 97.4537 163.114 96.8754C164.964 96.2971 167.439 98.9489 168.642 102.798C169.846 106.648 169.322 110.237 167.473 110.815C165.624 111.393 163.149 108.742 161.945 104.892Z" fill="black"/>
<path d="M161.284 105.1C160.081 101.25 160.534 97.6828 162.298 97.1314C164.062 96.5799 166.467 99.2534 167.671 103.103C168.874 106.952 168.42 110.52 166.657 111.071C164.893 111.622 162.488 108.949 161.284 105.1Z" fill="#FEAE0D"/>
<path opacity="0.1" d="M162.577 98.021C163.868 97.6484 164.94 98.9294 165.636 99.849C167.345 102.411 168.367 105.754 167.577 108.803C167.376 109.385 167.011 110.023 166.379 110.18C166.961 109.919 167.226 109.316 167.353 108.74C168.118 106.186 165.827 97.837 162.577 98.021Z" fill="black"/>
<path d="M161.724 98.0643C160.118 95.0042 161.669 92.2486 161.736 92.133L162.833 92.7657L162.285 92.4493L162.834 92.7635C162.782 92.8557 161.571 95.0472 162.846 97.4761L161.724 98.0643Z" fill="#FEAE0D"/>
<path d="M189.5 84.751C192.8 86.9852 193.544 81.8168 193.544 81.8168C193.544 81.8168 194.266 89.5145 198.56 90.5023C202.7 91.4428 203.379 85.1675 203.433 84.7186C203.475 85.1256 204.324 92.1817 208.74 92.7297C213.331 93.2955 212.931 86.8789 212.903 86.4645C213.063 86.8362 215.262 91.7167 218.712 91.3701C224.641 90.7715 219.361 78.1374 221.379 73.7551C221.379 73.7551 227.504 73.8133 227.747 73.8401C227.747 73.8401 224.661 64.2312 218.599 61.8395C215.403 60.5786 213.597 63.3085 213.597 63.3085C213.597 63.3085 212.488 59.2293 209.025 58.6883C207.246 58.4153 205.227 61.0175 205.227 61.0175C205.227 61.0175 204.203 57.7886 201.092 57.4993C198.61 57.2605 196.97 59.9081 196.97 59.9081C196.97 59.9081 194.549 57.2638 191.934 57.8438C186.657 59.0015 182.437 79.9607 189.5 84.751Z" fill="#EB9481"/>
<path d="M196.645 60.288C196.665 60.2196 196.573 60.1784 196.541 60.245C193.471 66.7992 192.107 74.9409 193.473 82.0923C193.517 82.327 193.918 82.356 193.918 82.0884C193.919 74.448 194.53 67.6675 196.645 60.288Z" fill="#263238"/>
<path d="M205.203 60.9063C205.227 60.8264 205.094 60.787 205.057 60.8682C201.93 67.6386 200.645 76.8514 203.191 84.909C203.278 85.1854 203.633 85.346 203.557 85.0203C202.27 79.534 203.265 67.5399 205.203 60.9063Z" fill="#263238"/>
<path d="M213.273 86.966C211.131 79.1453 211.711 71.4249 213.448 63.5808C213.47 63.4787 213.324 63.4573 213.281 63.5375C211.386 67.1433 210.801 72.2584 210.682 76.2773C210.568 80.1265 211.239 83.6224 212.999 87.041C213.068 87.1734 213.319 87.133 213.273 86.966Z" fill="#263238"/>
<path d="M193.451 81.9142C193.506 82.1959 193.857 81.8069 193.92 82.0867C194.185 83.2634 196.386 90.2082 198.985 90.1927C201.068 90.1753 202.489 87.3647 202.612 86.0713L202.92 82.8183L203.762 85.9817C204.129 87.3623 204.712 88.7684 205.504 89.9471C206.292 91.1253 207.39 92.09 208.666 92.2472C209.996 92.4379 211.19 91.8677 211.711 90.6499C212.274 89.4682 212.381 87.9264 212.262 86.5457L211.93 82.6879L213.499 86.2092C213.923 87.1631 214.499 88.1296 215.162 88.9502C215.83 89.7656 216.641 90.48 217.551 90.7435C218.442 91.0062 219.487 90.7824 220.066 90.1084C220.685 89.4076 220.937 88.3027 221.073 87.2348C221.323 85.0495 221.107 82.7812 221.005 80.5228C220.946 79.391 220.884 78.2545 220.877 77.1147C220.89 75.9874 220.893 74.7964 221.38 73.7543C221.006 74.8334 221.132 75.9862 221.19 77.102C221.283 78.2259 221.43 79.3466 221.576 80.4705C221.869 82.7185 222.138 84.9848 222.003 87.3239C221.895 88.4778 221.738 89.7266 220.905 90.8083C220.036 91.918 218.496 92.2519 217.231 91.8886C215.939 91.5235 214.981 90.6469 214.207 89.7431C213.435 88.8106 212.824 87.8241 212.309 86.7182L213.545 86.3818C213.699 88.012 213.648 89.6297 212.942 91.2366C212.591 92.0248 211.947 92.7776 211.1 93.1833C210.252 93.5949 209.347 93.6692 208.478 93.5444C206.672 93.2766 205.331 91.9624 204.473 90.6334C203.593 89.264 203.018 87.8058 202.625 86.2416L203.775 86.1518C203.564 87.7908 202.317 91.1059 199.09 91.5388C194.8 91.4741 193.571 83.4059 193.451 81.9142Z" fill="#263238"/>
<path d="M193.545 81.8167C193.236 82.6296 192.861 83.3919 192.393 83.9742C191.928 84.5607 191.292 84.8337 190.682 84.7417C190.066 84.6633 189.427 84.1826 188.844 83.6444C188.27 83.0826 187.696 82.4631 187.128 81.7988C187.309 82.6587 187.658 83.482 188.185 84.2143C188.708 84.9309 189.432 85.6529 190.525 85.8463C191.072 85.9016 191.612 85.807 192.082 85.5477C192.544 85.2737 192.894 84.8799 193.115 84.4547C193.574 83.6083 193.66 82.6837 193.545 81.8167Z" fill="#263238"/>
<path d="M201.203 118.409C205.59 128 208.804 138.048 213.339 147.567C210.116 143.344 208.072 138.363 206.063 133.489C204.15 128.56 202.429 123.56 201.203 118.409Z" fill="#263238"/>
<path d="M27.6465 296.708C108.118 296.32 198.39 296.317 278.862 296.708C198.39 297.099 108.118 297.096 27.6465 296.708Z" fill="#263238"/>
<path d="M109.002 84.4962C108.827 85.9094 109.83 87.1973 111.243 87.3726C112.657 87.548 113.944 86.5444 114.12 85.1312C114.295 83.718 113.292 82.4301 111.878 82.2548C110.465 82.0794 109.177 83.0829 109.002 84.4962Z" fill="white"/>
<path d="M109.001 84.4959C108.719 87.7353 113.344 88.2186 113.805 85.092C114.119 81.9488 109.519 81.2882 109.001 84.4959ZM109.001 84.4959C109.527 80.9564 114.757 81.5146 114.433 85.17C113.852 88.791 108.646 88.0543 109.001 84.4959Z" fill="#263238"/>
<path d="M99.1226 81.2681C98.8701 83.3028 100.315 85.1568 102.35 85.4093C104.384 85.6618 106.238 84.217 106.491 82.1823C106.743 80.1477 105.298 78.2936 103.264 78.0411C101.229 77.7887 99.375 79.2334 99.1226 81.2681Z" fill="white"/>
<path d="M99.1213 81.2688C98.6951 85.9711 105.463 86.7762 106.175 82.144C106.613 77.4795 99.8565 76.6071 99.1213 81.2688ZM99.1213 81.2688C99.4761 77.9622 103.841 76.6599 105.949 79.2763C107.355 80.9022 107.016 83.6362 105.254 84.8685C102.57 86.8874 98.6573 84.5619 99.1213 81.2688Z" fill="#263238"/>
<path d="M93.2384 79.1037C106.721 65.6208 106.721 43.7609 93.2384 30.278C79.7556 16.7952 57.8956 16.7952 44.4128 30.278C30.93 43.7609 30.93 65.6208 44.4128 79.1037C57.8956 92.5865 79.7556 92.5865 93.2384 79.1037Z" fill="white"/>
<path d="M36.4923 42.5974C31.6031 55.3449 35.2077 70.7064 45.3484 79.8656C63.1621 96.4134 92.4171 89.4782 100.87 66.6777C109.451 43.9261 91.933 19.4971 67.6324 20.291C53.9709 20.5474 41.1684 29.7694 36.4923 42.5974ZM36.4923 42.5974C41.1379 29.7165 53.9428 20.4882 67.6256 20.091C92.3328 19.1323 110.095 43.7338 101.462 66.8995C92.7691 90.0429 63.2263 96.9474 45.2131 80.0102C35.1511 70.7308 31.5426 55.3654 36.4923 42.5974Z" fill="#263238"/>
<path d="M68.8985 89.5578C60.1401 89.5578 51.6255 86.257 45.1034 80.1246C34.9855 70.7935 31.3826 55.3383 36.3425 42.541C41.0007 29.6289 53.8624 20.3312 67.6197 19.9316C79.2656 19.4733 90.3054 24.864 97.1587 34.3343C104.023 43.8195 105.686 56.0137 101.609 66.954C97.5032 77.8849 88.2442 85.9932 76.8407 88.6445C74.2033 89.2578 71.5396 89.5578 68.8985 89.5578ZM57.3827 87.2593C63.5065 89.4331 70.2172 89.8599 76.7689 88.3359C88.0691 85.7086 97.2441 77.674 101.312 66.8429C105.352 56.0026 103.704 43.919 96.902 34.5202C92.8952 28.9831 87.4419 24.8554 81.2749 22.4935C87.3708 24.8968 92.7576 29.0425 96.7189 34.5753C103.456 43.9843 105.063 56.0057 101.016 66.7328C97.0322 77.4804 87.9321 85.4968 76.674 88.1757C70.1587 89.7263 63.4811 89.3564 57.3827 87.2593ZM36.6391 42.6523L36.6388 42.6529C31.7528 55.3927 35.3773 70.6463 45.4532 79.747C53.7887 87.49 65.4322 90.5248 76.6007 87.8676C87.7555 85.2132 96.7721 77.271 100.72 66.6218C104.729 55.9933 103.137 44.0823 96.4616 34.7596C89.7791 25.4269 78.995 20.0726 67.6364 20.4484C54.0581 20.7032 41.3134 29.8324 36.6404 42.6486L36.6401 42.6501L36.6391 42.6523Z" fill="#263238"/>
<path opacity="0.6" d="M79.967 62.2322C79.967 68.5161 75.5313 74.1102 68.821 74.1102C62.1106 74.1102 57.6844 68.5161 57.6844 62.2322C57.6844 52.3669 68.821 35.2728 68.821 35.2728C68.821 35.2728 79.967 52.3669 79.967 62.2322Z" fill="#DBDBDB"/>
<path opacity="0.4" d="M63.4919 52.02C61.4029 56.9132 59.846 65.4422 63.077 70.048L62.9748 70.1636C62.2562 69.6961 57.6263 66.0609 59.9647 56.6891C61.1472 51.9499 66.8213 42.5092 66.9541 39.3125C66.9541 39.3125 66.0102 46.138 63.4919 52.02Z" fill="white"/>
<path d="M71.8563 42.5259C72.8347 46.8354 74.2931 49.6134 75.9795 54.0606C77.3782 57.7602 78.1025 64.5069 75.717 67.9084L75.7877 67.9967C76.308 67.6576 79.2358 65.0757 78.1776 57.9453C77.7794 55.2613 76.2543 52.3169 74.0815 48.2313C72.7378 45.7045 71.8563 42.5259 71.8563 42.5259Z" fill="#DBDBDB"/>
<path d="M57.8626 34.0996H53.0083V50.2989H57.8626V34.0996Z" fill="#00633A"/>
<path d="M63.5358 44.6259V39.7715H47.3364V44.6259H63.5358Z" fill="#00633A"/>
</svg>
